<svg xmlns="http://www.w3.org/2000/svg" width="100" height="100" viewBox="0 0 100 100">
  <g id="Group_245" data-name="Group 245" transform="translate(-5864 961)">
    <rect id="Rectangle_68" data-name="Rectangle 68" width="100" height="100" transform="translate(5864 -961)" fill="#e3e3e3"/>
    <path id="user" d="M37.913,30.145a15.762,15.762,0,1,0-19.493,0A26.271,26.271,0,0,0,2.08,51.634a2.643,2.643,0,1,0,5.254.578,21.017,21.017,0,0,1,41.77,0,2.627,2.627,0,0,0,2.627,2.338h.289a2.627,2.627,0,0,0,2.312-2.89A26.271,26.271,0,0,0,37.913,30.145ZM28.167,28.28A10.508,10.508,0,1,1,38.675,17.771,10.508,10.508,0,0,1,28.167,28.28Z" transform="translate(5885.794 -939.28)" fill="#fff"/>
  </g>
</svg>
