<svg xmlns="http://www.w3.org/2000/svg" width="25.378" height="25.378" viewBox="0 0 25.378 25.378">
  <g id="icons8-google" transform="translate(0)">
    <path id="Path_49" data-name="Path 49" d="M29.131,14.2H28.109v-.053H16.689v5.076H23.86A7.619,7.619,0,1,1,21.74,11l3.589-3.589a12.676,12.676,0,1,0,4.049,9.274A12.776,12.776,0,0,0,29.131,14.2Z" transform="translate(-4 -4)" fill="#ffc107"/>
    <path id="Path_50" data-name="Path 50" d="M6.306,10.783l4.169,3.057A7.6,7.6,0,0,1,22.583,11l3.589-3.589A12.664,12.664,0,0,0,6.306,10.783Z" transform="translate(-4.843 -4)" fill="#ff3d00"/>
    <path id="Path_51" data-name="Path 51" d="M17.492,38.171A12.63,12.63,0,0,0,26,34.877l-3.927-3.323a7.594,7.594,0,0,1-11.739-3.5L6.2,31.242A12.679,12.679,0,0,0,17.492,38.171Z" transform="translate(-4.802 -12.793)" fill="#4caf50"/>
    <path id="Path_52" data-name="Path 52" d="M36.442,20.053H35.42V20H24v5.076h7.171a7.639,7.639,0,0,1-2.593,3.535h0l3.927,3.323a12.275,12.275,0,0,0,4.182-9.394A12.776,12.776,0,0,0,36.442,20.053Z" transform="translate(-11.311 -9.849)" fill="#1976d2"/>
  </g>
</svg>
