<svg xmlns="http://www.w3.org/2000/svg" width="606.153" height="495.888" viewBox="0 0 606.153 495.888">
  <g id="online-learning-concept_4" data-name="online-learning-concept 4" transform="translate(-41 -242)">
    <path id="Path_40" data-name="Path 40" d="M639.923,1036.78H48.23a7.252,7.252,0,0,1-7.23-7.23V1001.23A7.252,7.252,0,0,1,48.23,994H639.923a7.252,7.252,0,0,1,7.23,7.23v28.319A7.252,7.252,0,0,1,639.923,1036.78Z" transform="translate(0 -298.892)" fill="#f7f7f7"/>
    <path id="Path_41" data-name="Path 41" d="M419.248,745.5c111.146,0,201.248-90.1,201.248-201.248S530.394,343,419.248,343,218,433.1,218,544.248,308.1,745.5,419.248,745.5Z" transform="translate(-70.351 -40.144)" fill="#e8f0fb"/>
    <path id="Path_42" data-name="Path 42" d="M951.321,831.341c4.278-10.906,8.616-23.017,4.579-33.983-.964-2.651-2.47-5.483-1.567-8.195,1.205-3.675,6.025-4.941,7.592-8.436,1.808-3.856-1.024-8.315-.3-12.473.723-4.218,4.881-6.989,8.918-8.5s8.436-2.47,11.69-5.242c6.206-5.423,5.483-15.124,4.1-23.318-1.386-8.134-2.41-17.775,3.555-23.5-10.966,2.109-22.174,4.278-31.694,10.062s-17.112,16.027-16.57,27.174c.3,5.6,2.47,11.569-.06,16.51-2.772,5.363-10.183,7.471-12.051,13.2-2.169,6.568,4.278,12.593,6.809,19.04,2.41,6.086,1.265,12.894,1.808,19.341.542,6.507,3.917,13.858,10.364,14.822Z" transform="translate(-352.975 -185.098)" fill="#2b61eb"/>
    <path id="Path_43" data-name="Path 43" d="M951.321,831.341c4.278-10.906,8.616-23.017,4.579-33.983-.964-2.651-2.47-5.483-1.567-8.195,1.205-3.675,6.025-4.941,7.592-8.436,1.808-3.856-1.024-8.315-.3-12.473.723-4.218,4.881-6.989,8.918-8.5s8.436-2.47,11.69-5.242c6.206-5.423,5.483-15.124,4.1-23.318-1.386-8.134-2.41-17.775,3.555-23.5-10.966,2.109-22.174,4.278-31.694,10.062s-17.112,16.027-16.57,27.174c.3,5.6,2.47,11.569-.06,16.51-2.772,5.363-10.183,7.471-12.051,13.2-2.169,6.568,4.278,12.593,6.809,19.04,2.41,6.086,1.265,12.894,1.808,19.341.542,6.507,3.917,13.858,10.364,14.822Z" transform="translate(-352.975 -185.098)" fill="#fff" opacity="0.31"/>
    <path id="Path_44" data-name="Path 44" d="M958.7,817.22c-.12-31.693,6.025-98.033,42.6-109.12" transform="translate(-364.749 -185.257)" fill="none" stroke="#fff" stroke-linecap="round" stroke-miterlimit="10" stroke-width="0.75"/>
    <path id="Path_45" data-name="Path 45" d="M882.682,816.487c-6.507-12.171-13.256-25.728-10.062-39.165.783-3.254,2.109-6.748.723-9.821-1.868-4.1-7.712-5-10.062-8.857-2.591-4.218.06-9.882-1.386-14.642-1.446-4.881-6.688-7.471-11.569-8.737-4.88-1.205-10.183-1.687-14.4-4.579-8.014-5.483-8.5-16.992-8.014-26.692s.362-21.149-7.411-26.994c13.135.964,26.572,1.988,38.5,7.471s22.294,16.449,23.137,29.585c.422,6.568-1.326,13.858,2.35,19.341,3.977,5.9,12.955,7.351,15.967,13.8,3.434,7.411-3.254,15.3-5.363,23.2-1.928,7.411.3,15.244.542,22.9s-2.711,16.751-10.123,18.8Z" transform="translate(-309.822 -172.896)" fill="#2b61eb"/>
    <path id="Path_46" data-name="Path 46" d="M886.194,799.293c-4.218-37.177-20.486-114-64.893-121.893" transform="translate(-310.14 -173.055)" fill="none" stroke="#fff" stroke-linecap="round" stroke-miterlimit="10" stroke-width="0.75"/>
    <path id="Path_47" data-name="Path 47" d="M946.292,963.009H889.051a7.252,7.252,0,0,1-7.23-7.23L877,873.23a7.252,7.252,0,0,1,7.23-7.23h66.882a7.252,7.252,0,0,1,7.23,7.23l-4.82,82.548A7.252,7.252,0,0,1,946.292,963.009Z" transform="translate(-332.278 -248.016)" fill="#d3d9ec"/>
    <path id="Path_48" data-name="Path 48" d="M130.547,588.21l36.935-5.6,25.112,165.612-36.936,5.6Z" transform="translate(-35.592 -135.379)" fill="#2b61eb"/>
    <path id="Path_49" data-name="Path 49" d="M161.172,585.436l18.468-2.8,25.111,165.613-18.468,2.8Z" transform="translate(-47.764 -135.39)" fill="#2b61eb"/>
    <path id="Path_50" data-name="Path 50" d="M167.538,563.663l-36.936,5.6,8.677-22.234,4.941-12.533,8.436,10.544Z" transform="translate(-35.613 -116.258)" fill="#6f91e8"/>
    <path id="Path_51" data-name="Path 51" d="M158.376,545.044,145,547.033l4.941-12.533Z" transform="translate(-41.336 -116.258)"/>
    <path id="Path_52" data-name="Path 52" d="M231.262,519.681l37.208,3.332L253.53,689.849l-37.208-3.332Z" transform="translate(-69.684 -110.368)" fill="#2b61eb"/>
    <path id="Path_53" data-name="Path 53" d="M262.2,522.469l18.6,1.666L265.86,690.97l-18.6-1.666Z" transform="translate(-81.979 -111.476)" fill="#2b61eb"/>
    <path id="Path_54" data-name="Path 54" d="M278.339,503.163,241.1,499.849l13.738-19.522,7.773-11.026,5.664,12.232Z" transform="translate(-79.533 -90.343)" fill="#6f91e8"/>
    <path id="Path_55" data-name="Path 55" d="M277.335,481.531,263.9,480.326l7.773-11.026Z" transform="translate(-88.594 -90.343)"/>
    <path id="Path_56" data-name="Path 56" d="M234,878.157H87.221L68,651H245.749Z" transform="translate(-10.731 -162.562)" fill="#d3d9ec"/>
    <path id="Path_57" data-name="Path 57" d="M215.5,878.157h77.125L304.374,651H215.5Z" transform="translate(-69.357 -162.562)" fill="#d3d9ec" opacity="0.5"/>
    <path id="Path_58" data-name="Path 58" d="M269,921.6H641.971v51.276H269Z" transform="translate(-90.621 -270.115)" fill="#6f91e8"/>
    <path id="Path_59" data-name="Path 59" d="M258.245,914.326V965.6H649.533v3.856c0,4.76-4.158,8.616-9.279,8.616H259.932c-12.111,0-21.932-9.038-21.932-20.245V923.545c0-11.207,9.821-20.245,21.932-20.245H640.254c5.122,0,9.279,3.856,9.279,8.616v2.47H258.245Z" transform="translate(-78.3 -262.842)" fill="#2b61eb"/>
    <path id="Path_60" data-name="Path 60" d="M272,959H643.163v28.922H272Z" transform="translate(-91.814 -284.98)" fill="#6f91e8"/>
    <path id="Path_61" data-name="Path 61" d="M349,818H652.077v44.588H349Z" transform="translate(-122.418 -228.938)" fill="#d3d9ec"/>
    <path id="Path_62" data-name="Path 62" d="M338.269,811.68v44.588H652.793v3.374a7.47,7.47,0,0,1-7.471,7.471H339.594A17.615,17.615,0,0,1,322,849.52V819.694A17.615,17.615,0,0,1,339.594,802.1H645.322a7.509,7.509,0,0,1,7.471,7.471v2.169H338.269Z" transform="translate(-111.687 -222.619)" fill="#becbe9"/>
    <path id="Path_63" data-name="Path 63" d="M493.951,528.987a16.02,16.02,0,0,1-.6-18.739c3.133-4.579,5.242-10.243,5-14.4-.482-7.471-5.122-14.34-11.448-18.438a29.232,29.232,0,0,0-45.01,21.089c-.844,7.05.783,14.762-2.832,20.908-2.651,4.4-7.532,6.989-12.352,8.737-4.881,1.687-10,2.832-14.461,5.423s-8.255,7.05-8.195,12.232c.06,3.917,2.29,7.532,2.531,11.388.362,5.664-3.615,10.665-7.833,14.4-4.278,3.736-9.159,6.989-12.051,11.87-4.76,8.074-2.531,18.98,3.495,26.21s15.063,11.267,24.1,13.617c24.7,6.507,50.734,2.29,76.221,1.868,7.893-.121,15.967.12,23.62-1.868s15.124-6.568,18.317-13.8c3.254-7.23,1.627-16.028-2.711-22.6s-11.147-11.328-18.317-14.7c-5.182-2.47-10.725-4.4-14.943-8.255s-6.688-10.424-3.856-15.425c1.085-1.928,2.892-3.435,3.917-5.363,2.049-3.736,1.205-8.5-1.085-12.111C495.036,530.434,494.554,529.771,493.951,528.987Z" transform="translate(-136.379 -91.705)"/>
    <path id="Path_64" data-name="Path 64" d="M349,851H652.077v24.7H349Z" transform="translate(-122.418 -242.055)" fill="#d3d9ec"/>
    <path id="Path_65" data-name="Path 65" d="M549.171,746l37.357,26.512,45.793,94.6h-8.436L572.67,783.357s-17.474.6-23.5-4.82S508.5,749.615,508.5,749.615Z" transform="translate(-185.814 -200.321)" fill="#171717"/>
    <path id="Path_66" data-name="Path 66" d="M464.423,733.4c-6.809,18.438-1.988,44.347,20.908,45.552s30.127,0,30.127,0l44.588,90.381h10.243L535.342,768.106l-42.479-23.5Z" transform="translate(-167.164 -195.313)"/>
    <path id="Path_67" data-name="Path 67" d="M521.615,559c6.025,7.833,20.486,29.524,25.909,53.626s20.486,59.049,20.486,59.049H550.537l-16.871-57.241L518,560.808Z" transform="translate(-189.59 -125.996)" fill="#d0dbf1"/>
    <path id="Path_68" data-name="Path 68" d="M536.386,497.991c.9,14.762-5.543,24.885-14.762,25.367s-15.244-12.894-12.473-25.367C515.6,486.9,524.4,486,524.4,486h5.543Z" transform="translate(-185.803 -96.981)" fill="#ffe3ca"/>
    <path id="Path_69" data-name="Path 69" d="M527.391,488a21.12,21.12,0,0,1-26.09,13.738L514.436,483H525.7l10.785,8.556-1.627,9.821C530.645,498.184,527.391,488,527.391,488Z" transform="translate(-182.952 -95.788)"/>
    <path id="Path_70" data-name="Path 70" d="M517.274,536.515c-1.928,7.472-1.326,15.3-1.326,16.51-1.808,2.41-10.243,1.808-11.448-6.628a218.9,218.9,0,0,1,5.423-22.9l3.013,6.628Z" transform="translate(-184.224 -111.886)" fill="#ffe3ca"/>
    <path id="Path_71" data-name="Path 71" d="M484.043,550.9c-7.532,2.47-32.838,13.919-34.043,16.329,1.808,6.628,10.846,104.842,10.846,104.842h40.973s-5.423-54.228-2.41-57.844,12.653-16.268,11.448-18.076-16.51-40.671-16.51-40.671Z" transform="translate(-162.562 -122.776)" fill="#becbe9"/>
    <path id="Path_72" data-name="Path 72" d="M433.9,578c-5.9,4.519-30.729,45.19-22.9,66.882s33.441,34.465,33.441,34.465v-11.93s-20.788-16.51-19.582-28.56S440.527,602.1,440.527,602.1Z" transform="translate(-146.46 -133.547)" fill="#d0dbf1"/>
    <path id="Path_73" data-name="Path 73" d="M547.665,719.382H458.971a5.092,5.092,0,0,1-5.061-5.061l-2.41-56.759a5.092,5.092,0,0,1,5.061-5.061H548.87a5.092,5.092,0,0,1,5.061,5.061l-1.205,56.759A5.092,5.092,0,0,1,547.665,719.382Z" transform="translate(-163.158 -163.158)" fill="#2b61eb"/>
    <path id="Path_74" data-name="Path 74" d="M633.293,953.793c5.965,1.326,14.039,7.893,17.9,11.268a1.14,1.14,0,0,1-.783,1.988c-6.206-.12-20.245-.783-23.5-3.555-4.218-3.615-3.013-9.641-3.013-9.641h9.4ZM678,946.322c5.3,1.446,12.292,7.592,15.786,10.906a1.119,1.119,0,0,1-.844,1.928c-5.845-.422-18.377-1.567-21.209-4.278-3.736-3.495-2.35-8.978-2.35-8.978Z" transform="translate(-231.615 -279.774)"/>
    <path id="Path_75" data-name="Path 75" d="M531.038,711.076A9.038,9.038,0,1,0,522,702.038,9.038,9.038,0,0,0,531.038,711.076Z" transform="translate(-191.179 -179.255)" fill="#fff"/>
    <path id="Path_76" data-name="Path 76" d="M389.9,664.359l-11.448-6.628L367,664.359V622.181h22.9ZM567.4,414.607a4.569,4.569,0,0,1-1.145,3.013,4.454,4.454,0,0,1,1.145,3.013v3.736a4.743,4.743,0,0,1-.6,2.229,4.743,4.743,0,0,1,.6,2.229v3.736a4.449,4.449,0,0,1-4.459,4.459h-38.8a4.449,4.449,0,0,1-4.459-4.459v-3.8a4.743,4.743,0,0,1,.6-2.229,4.743,4.743,0,0,1-.6-2.229v-3.736a4.569,4.569,0,0,1,1.145-3.013,4.454,4.454,0,0,1-1.145-3.013v-3.736a4.449,4.449,0,0,1,4.459-4.459h38.8a4.449,4.449,0,0,1,4.459,4.459Zm30.97-84.476a54.923,54.923,0,0,1-30.97,49.408v20.245a2.8,2.8,0,0,1-2.772,2.772H522.455a2.8,2.8,0,0,1-2.772-2.772V379.539a54.847,54.847,0,1,1,78.691-49.408Z" transform="translate(-129.573 -13.235)" fill="#2b61eb"/>
    <path id="Path_77" data-name="Path 77" d="M666.755,512H630m36.755,8.436H630" transform="translate(-234.105 -107.315)" fill="none" stroke="#7f7f7f" stroke-linecap="round" stroke-miterlimit="10" stroke-width="2" opacity="0.23"/>
    <path id="Path_78" data-name="Path 78" d="M662.568,376.966a3.346,3.346,0,0,0-2.651-.783,4.775,4.775,0,0,0-3.254,1.868,7.22,7.22,0,0,0-1.205,3.013c-.542-.3-1.145-.6-1.687-.964l-.181-.121h-.783l-.181.121c-.6.362-1.145.663-1.687.964a7.218,7.218,0,0,0-1.205-3.013,4.65,4.65,0,0,0-3.254-1.868,3.416,3.416,0,0,0-2.651.783,3.326,3.326,0,0,0-.9,3.314,4.723,4.723,0,0,0,3.495,3.374,7.27,7.27,0,0,0,3.013-.121c1.506,19.582,2.109,39.406,1.687,58.988h1.808c.422-19.643-.181-39.526-1.687-59.109a1.67,1.67,0,0,0-.06-.542,13.322,13.322,0,0,0,2.049-1.085,22.009,22.009,0,0,0,2.049,1.085,1.67,1.67,0,0,1-.06.542c-1.506,19.582-2.109,39.466-1.687,59.109h1.808c-.422-19.583.181-39.466,1.687-58.988a6.35,6.35,0,0,0,3.013.121,4.819,4.819,0,0,0,3.495-3.374A3.49,3.49,0,0,0,662.568,376.966Zm-15.847,5a3.087,3.087,0,0,1-2.109-2.109,1.356,1.356,0,0,1,.362-1.506A1.431,1.431,0,0,1,646,377.99h.241a2.849,2.849,0,0,1,1.988,1.145,5.4,5.4,0,0,1,.964,2.651A5.74,5.74,0,0,1,646.721,381.967Zm15-2.109a2.981,2.981,0,0,1-2.109,2.109,4.708,4.708,0,0,1-2.41-.181,6.064,6.064,0,0,1,.964-2.651,3.044,3.044,0,0,1,1.988-1.145,1.544,1.544,0,0,1,1.265.362A1.75,1.75,0,0,1,661.725,379.858Z" transform="translate(-239.198 -53.322)" fill="#fff"/>
    <path id="Path_79" data-name="Path 79" d="M614.07,292c-13.256,4.82-34.947,22.294-33.14,50.613" transform="translate(-214.56 -19.873)" fill="none" stroke="#fff" stroke-linecap="round" stroke-miterlimit="10" stroke-width="4"/>
    <path id="Path_80" data-name="Path 80" d="M505.365,434.729A15.365,15.365,0,1,0,490,419.365,15.365,15.365,0,0,0,505.365,434.729Z" transform="translate(-178.461 -64.389)" fill="#2b61eb"/>
    <path id="Path_81" data-name="Path 81" d="M783.929,347.858A6.929,6.929,0,1,0,777,340.929,6.929,6.929,0,0,0,783.929,347.858Z" transform="translate(-292.532 -36.567)" fill="#2b61eb"/>
    <path id="Path_82" data-name="Path 82" d="M743.448,529.9A11.448,11.448,0,1,0,732,518.448,11.449,11.449,0,0,0,743.448,529.9Z" transform="translate(-274.646 -105.327)" fill="#2b61eb"/>
    <path id="Path_83" data-name="Path 83" d="M561.448,264.9A11.448,11.448,0,1,0,550,253.448,11.449,11.449,0,0,0,561.448,264.9Z" transform="translate(-202.308)" fill="#2b61eb"/>
    <path id="Path_84" data-name="Path 84" d="M389.9,893.178l-11.448-6.628L367,893.178V851h22.9Z" transform="translate(-129.573 -242.055)" fill="#0c0c0c" opacity="0.14"/>
  </g>
</svg>
