<svg xmlns="http://www.w3.org/2000/svg" width="154.389" height="32.814" viewBox="0 0 154.389 32.814">
  <g id="Group_161" data-name="Group 161" transform="translate(-42.678 -39.716)">
    <path id="Path_1" data-name="Path 1" d="M-24026.15-1484.084a1.577,1.577,0,0,1-.885-.271,1.586,1.586,0,0,1-.43-2.2l3.494-5.185-12.16,7.425a1.585,1.585,0,0,1-2.014-.3,1.581,1.581,0,0,1-.057-2.035l9.537-12.074-20.049,14.347a1.587,1.587,0,0,1-2.08-.2,1.585,1.585,0,0,1-.074-2.088l16.963-20.85-14.824,10.354a1.585,1.585,0,0,1-2.035-.185,1.583,1.583,0,0,1-.164-2.037l8.166-11.447-6.568,3.432a1.585,1.585,0,0,1-1.82-.25,1.585,1.585,0,0,1-.365-1.8l2.7-6.074a1.584,1.584,0,0,1,2.094-.8,1.587,1.587,0,0,1,.807,2.094l-.854,1.917,8.414-4.4a1.586,1.586,0,0,1,1.932.365,1.586,1.586,0,0,1,.1,1.963l-6.674,9.352,16.57-11.573a1.586,1.586,0,0,1,.908-.286,1.584,1.584,0,0,1,1.162.506,1.585,1.585,0,0,1,.068,2.081l-16.652,20.468,19.551-13.991a1.585,1.585,0,0,1,2.07.2,1.587,1.587,0,0,1,.1,2.078l-10.994,13.915,10.8-6.592a1.586,1.586,0,0,1,1.973.258,1.587,1.587,0,0,1,.17,1.983l-7.555,11.213A1.59,1.59,0,0,1-24026.15-1484.084Z" transform="translate(24094.33 1556.615)"/>
    <path id="Path_127" data-name="Path 127" d="M9.48.21A10.833,10.833,0,0,1,5.34-.54,6.748,6.748,0,0,1,2.415-2.76,6.065,6.065,0,0,1,1.26-6.3H6.72a2.649,2.649,0,0,0,.81,1.785,2.6,2.6,0,0,0,1.8.615,2.815,2.815,0,0,0,1.8-.525,1.756,1.756,0,0,0,.66-1.455,1.722,1.722,0,0,0-.525-1.29,4.235,4.235,0,0,0-1.29-.84A20.75,20.75,0,0,0,7.8-8.76a23.682,23.682,0,0,1-3.33-1.26,6.153,6.153,0,0,1-2.22-1.86,5.183,5.183,0,0,1-.93-3.21,5.52,5.52,0,0,1,2.13-4.6A8.752,8.752,0,0,1,9-21.36a8.854,8.854,0,0,1,5.61,1.665,5.96,5.96,0,0,1,2.28,4.635H11.34a2.171,2.171,0,0,0-.75-1.6,2.642,2.642,0,0,0-1.77-.585,2.206,2.206,0,0,0-1.5.5,1.785,1.785,0,0,0-.57,1.425,1.766,1.766,0,0,0,.96,1.59,15.737,15.737,0,0,0,3,1.23,27.744,27.744,0,0,1,3.315,1.32,6.311,6.311,0,0,1,2.2,1.83,4.9,4.9,0,0,1,.93,3.09A6.064,6.064,0,0,1,16.245-3,6.408,6.408,0,0,1,13.59-.66,9.089,9.089,0,0,1,9.48.21Zm9.81-8.58a9.367,9.367,0,0,1,1.065-4.56,7.4,7.4,0,0,1,2.97-3,8.893,8.893,0,0,1,4.365-1.05,8.3,8.3,0,0,1,5.265,1.65,7.785,7.785,0,0,1,2.775,4.65H30.27A2.628,2.628,0,0,0,27.6-12.6a2.691,2.691,0,0,0-2.25,1.095,5.066,5.066,0,0,0-.84,3.135,5.066,5.066,0,0,0,.84,3.135,2.691,2.691,0,0,0,2.25,1.1,2.628,2.628,0,0,0,2.67-1.92h5.46a7.859,7.859,0,0,1-2.79,4.62A8.215,8.215,0,0,1,27.69.24,8.893,8.893,0,0,1,23.325-.81a7.4,7.4,0,0,1-2.97-3A9.367,9.367,0,0,1,19.29-8.37Zm24.3-5.58a6.767,6.767,0,0,1,2.25-2.175,5.8,5.8,0,0,1,3-.8v5.43H47.43a4.322,4.322,0,0,0-2.88.825,3.665,3.665,0,0,0-.96,2.895V0H38.46V-16.74h5.13ZM50.28-8.4a10,10,0,0,1,.975-4.53,7.273,7.273,0,0,1,2.655-3,6.931,6.931,0,0,1,3.75-1.05,6.442,6.442,0,0,1,3.105.72,5.3,5.3,0,0,1,2.055,1.89v-2.37h5.13V0H62.82V-2.37A5.54,5.54,0,0,1,60.735-.48,6.442,6.442,0,0,1,57.63.24,6.807,6.807,0,0,1,53.91-.825a7.359,7.359,0,0,1-2.655-3.03A10.1,10.1,0,0,1,50.28-8.4Zm12.54.03a4.194,4.194,0,0,0-1.065-3.03,3.46,3.46,0,0,0-2.595-1.11,3.483,3.483,0,0,0-2.6,1.1A4.141,4.141,0,0,0,55.5-8.4a4.248,4.248,0,0,0,1.065,3.045,3.438,3.438,0,0,0,2.6,1.125,3.46,3.46,0,0,0,2.595-1.11A4.194,4.194,0,0,0,62.82-8.37ZM95.7-16.74,91.17,0H85.5L82.86-10.86,80.13,0H74.49L69.93-16.74h5.13L77.43-4.77l2.82-11.97h5.43L88.53-4.83l2.34-11.91Zm7.08-5.46V0H97.65V-22.2Z" transform="translate(94.287 66.624)"/>
  </g>
</svg>
