<svg xmlns="http://www.w3.org/2000/svg" width="50" height="50" viewBox="0 0 50 50">
  <g id="Group_207" data-name="Group 207" transform="translate(-149 -441)">
    <circle id="Ellipse_9" data-name="Ellipse 9" cx="25" cy="25" r="25" transform="translate(149 441)" fill="#fff"/>
    <path id="moon" d="M21.64,13a1,1,0,0,0-1.05-.14,8.05,8.05,0,0,1-3.37.73,8.15,8.15,0,0,1-8.14-8.1,8.59,8.59,0,0,1,.25-2A1,1,0,0,0,8,2.36,10.14,10.14,0,1,0,22,14.05,1,1,0,0,0,21.64,13Zm-9.5,6.69A8.14,8.14,0,0,1,7.08,5.22v.27A10.15,10.15,0,0,0,17.22,15.63a9.79,9.79,0,0,0,2.1-.22,8.11,8.11,0,0,1-7.18,4.32Z" transform="translate(161.975 453.978)"/>
  </g>
</svg>
