<svg id="WhatsApp_Image_2023-03-30_at_09.22.27_adobe_express" data-name="WhatsApp Image 2023-03-30 at 09.22.27_adobe_express" xmlns="http://www.w3.org/2000/svg" width="634.982" height="401.89" viewBox="0 0 634.982 401.89">
  <path id="Path_161" data-name="Path 161" d="M634.982,203.24c-2.416.27-4.831.442-7.247.551s-4.828.155-7.241.171-4.823,0-7.232-.006-4.815-.013-7.22.021q-4.365.062-8.726.11t-8.71.087q-4.35.038-8.694.067t-8.678.051c-2.451.013-4.9,0-7.351-.019s-4.9-.045-7.34-.06-4.886-.019-7.326.006-4.874.078-7.307.179c-2.156.089-4.312.119-6.465.121s-4.3-.023-6.453-.045-4.3-.038-6.443-.019-4.29.074-6.433.2a14.83,14.83,0,0,1-1.77-.018c-.592-.037-1.186-.1-1.779-.153s-1.185-.11-1.774-.134a12.4,12.4,0,0,0-1.756.038c-1.344.135-2.684.22-4.021.267s-2.672.057-4.007.042-2.669-.055-4.005-.108-2.674-.118-4.016-.183c-2.165-.1-4.33-.129-6.495-.112s-4.328.074-6.493.132-4.329.118-6.494.138-4.331,0-6.5-.1c-4.033-.181-8.063-.239-12.091-.225s-8.045.1-12.064.206-8.027.235-12.036.333-8.008.168-12.008.157q-2.725-.007-5.445-.041t-5.436-.081q-2.716-.048-5.429-.1t-5.423-.106a2.247,2.247,0,0,1-.24-.02c-.081-.01-.161-.022-.242-.032a1.907,1.907,0,0,0-.236-.016.858.858,0,0,0-.224.028,22.51,22.51,0,0,1-5.035.757,44.825,44.825,0,0,1-5.042-.11c-1.681-.115-3.362-.274-5.043-.379a40.609,40.609,0,0,0-5.041-.051c-1.748.108-3.5.173-5.25.209s-3.5.043-5.255.035-3.5-.029-5.253-.05-3.5-.042-5.246-.047q-2.58-.008-5.159-.016t-5.153-.03q-2.574-.022-5.146-.067t-5.138-.128c-.748-.024-1.511-.126-2.249-.2a8.87,8.87,0,0,0-2.094-.022,2.855,2.855,0,0,0-1.69.8,4.288,4.288,0,0,0-1.037,2.262,2.814,2.814,0,0,1-.854.048,2.112,2.112,0,0,1-.67-.186,2.544,2.544,0,0,1-.534-.341,5.212,5.212,0,0,1-.447-.419,4.671,4.671,0,0,0-.889-.737,2.487,2.487,0,0,0-.915-.354,2.2,2.2,0,0,0-.971.069,3.646,3.646,0,0,0-1.058.532,3.741,3.741,0,0,1-1.27.558,8.5,8.5,0,0,1-1.367.195c-.464.037-.933.061-1.393.121a5.247,5.247,0,0,0-1.348.338.575.575,0,0,1-.316.005,1.949,1.949,0,0,1-.764-.358.565.565,0,0,1-.2-.245,3.307,3.307,0,0,0-.888-1.549,2.464,2.464,0,0,0-1.26-.593,6.22,6.22,0,0,0-1.467-.046c-.505.031-1.018.085-1.51.094q-4.759.092-9.511.125t-9.49,0q-4.738-.034-9.469-.139t-9.448-.29a4.216,4.216,0,0,0-.812.04,2.846,2.846,0,0,0-.7.2,2.559,2.559,0,0,0-.608.373,3.207,3.207,0,0,0-.529.562q-.346.463-.687.929t-.68.934q-.34.467-.681.933t-.689.927c-.19.251-.4.522-.621.779a5.353,5.353,0,0,1-.712.7,2.207,2.207,0,0,1-.786.419,1.281,1.281,0,0,1-.841-.056,5.242,5.242,0,0,0-2.739-.452,4.391,4.391,0,0,0-2.065.887,10.818,10.818,0,0,0-1.666,1.633c-.519.6-1.017,1.231-1.54,1.786-.4.419-.805.814-1.227,1.189s-.855.731-1.3,1.074-.889.672-1.342.994-.909.636-1.367.949a4.739,4.739,0,0,1-1.692.764,2.707,2.707,0,0,1-1.5-.086,2.676,2.676,0,0,1-1.194-.9,4.677,4.677,0,0,1-.784-1.687,4.219,4.219,0,0,0-.567-1.309,2.666,2.666,0,0,0-.826-.8,2.866,2.866,0,0,0-1.031-.37,4.622,4.622,0,0,0-1.181-.027,9.69,9.69,0,0,1-3.835-.375,10.949,10.949,0,0,1-3.131-1.6,22.221,22.221,0,0,1-2.7-2.348c-.857-.853-1.686-1.751-2.533-2.612a7.634,7.634,0,0,1-.716-.866c-.223-.305-.436-.621-.66-.929a8.059,8.059,0,0,0-.724-.881,4.229,4.229,0,0,0-.908-.722,1.991,1.991,0,0,1-.253-.178,2.127,2.127,0,0,1-.241-.23,1.336,1.336,0,0,1-.181-.254.569.569,0,0,1-.075-.248,17.4,17.4,0,0,0-.728-4.443,42.657,42.657,0,0,0-1.518-4.208c-.562-1.386-1.143-2.767-1.63-4.177a21.314,21.314,0,0,1-1.064-4.353,14.979,14.979,0,0,1-.084-2.482c.035-.819.121-1.631.221-2.44s.214-1.616.306-2.425a24.327,24.327,0,0,0,.172-2.436.4.4,0,0,1,.009-.076c.005-.025.012-.051.019-.076s.013-.05.018-.076a.347.347,0,0,0,.007-.075,46.627,46.627,0,0,1,.4-7.889,52.256,52.256,0,0,1,1.615-7.557,65,65,0,0,1,2.61-7.276c1.012-2.384,2.153-4.73,3.387-7.045a2.233,2.233,0,0,0-.7-.624,2.056,2.056,0,0,0-.747-.236,4.023,4.023,0,0,0-.758-.012c-.25.015-.5.041-.731.05-3.49.131-6.976.187-10.457.189s-6.954-.05-10.426-.136-6.935-.2-10.4-.334-6.917-.273-10.371-.407a2.986,2.986,0,0,0-.92.091,1.842,1.842,0,0,0-.669.338,2.183,2.183,0,0,0-.484.561,4.454,4.454,0,0,0-.363.759c-.365.953-.739,1.9-1.114,2.852s-.753,1.9-1.125,2.848-.737,1.9-1.09,2.859-.691,1.917-1.008,2.885c-.39,1.191-.815,2.366-1.261,3.533s-.913,2.322-1.388,3.475-.959,2.3-1.439,3.451-.954,2.3-1.412,3.461a7.088,7.088,0,0,0-.472,1.587,1.129,1.129,0,0,0,.171.907,1.178,1.178,0,0,0,.87.328,7.412,7.412,0,0,0,1.625-.152q1.924-.341,3.848-.693t3.851-.7q1.927-.347,3.857-.681t3.867-.639a6.036,6.036,0,0,0,1.863-.58A4.031,4.031,0,0,0,192.6,170.4a4.781,4.781,0,0,0,.8-1.472,8.754,8.754,0,0,0,.4-1.884c.058-.516.073-1.072.12-1.612a5.215,5.215,0,0,1,.308-1.51,1.991,1.991,0,0,1,.943-1.066,3.7,3.7,0,0,1,2.023-.278.943.943,0,0,0,.69-.186,1.38,1.38,0,0,0,.4-.583,4.071,4.071,0,0,0,.213-.794c.05-.279.085-.563.121-.821a5.043,5.043,0,0,1,.31-1.233,1.821,1.821,0,0,1,.573-.789,1.309,1.309,0,0,1,.9-.236,3.309,3.309,0,0,1,1.28.424c.066.035.137.076.21.116s.148.079.222.112a1.045,1.045,0,0,0,.216.073.4.4,0,0,0,.192,0,4.64,4.64,0,0,1,2.63-.218,1.575,1.575,0,0,1,1.073,1.1,4.678,4.678,0,0,1,.106,1.788c-.06.64-.182,1.288-.268,1.839-.354,2.265-.6,4.534-.765,6.806s-.262,4.545-.32,6.819-.079,4.55-.1,6.825-.048,4.55-.112,6.823c-.028.985,0,1.976.053,2.969s.137,1.987.222,2.979.17,1.98.231,2.961.1,1.955.083,2.916a22.6,22.6,0,0,1-.243,2.955,24.8,24.8,0,0,1-1.662,5.947,23.37,23.37,0,0,1-1.4,2.8,1.212,1.212,0,0,1-.315.358,1.083,1.083,0,0,1-.4.188,1.135,1.135,0,0,1-.444.015,1.318,1.318,0,0,1-.448-.162,3.663,3.663,0,0,0-1.77-.552,2.755,2.755,0,0,0-1.431.387,5.546,5.546,0,0,0-1.2.979c-.374.386-.729.814-1.081,1.224-.171.2-.329.409-.489.607a4.124,4.124,0,0,1-.5.538,1.558,1.558,0,0,1-.593.336,1.51,1.51,0,0,1-.774,0,1.577,1.577,0,0,1-.718-.365,1.743,1.743,0,0,1-.414-.6,3.787,3.787,0,0,1-.221-.728c-.054-.253-.095-.51-.141-.754-.122-.65-.248-1.3-.373-1.951s-.247-1.3-.362-1.954-.223-1.3-.317-1.959-.175-1.31-.236-1.967a5.178,5.178,0,0,0-.331-1.487,2.354,2.354,0,0,0-.679-.952,2.381,2.381,0,0,0-1.056-.474,5.252,5.252,0,0,0-1.462-.053c-2.254.186-4.508.325-6.762.428s-4.506.172-6.759.218-4.5.07-6.752.085-4.5.021-6.743.03q-3.739.016-7.473.012t-7.461-.016q-3.726-.012-7.449-.027t-7.436-.023l-3.267-.009-3.265-.009q-1.632,0-3.263,0t-3.26.011a7.105,7.105,0,0,0-2.055.263,2.521,2.521,0,0,0-1.267.805,2.39,2.39,0,0,0-.476,1.419,6.643,6.643,0,0,0,.318,2.1,13.715,13.715,0,0,1,.495,2.677,16.081,16.081,0,0,1,0,2.612,23.811,23.811,0,0,1-.355,2.577c-.162.856-.359,1.712-.569,2.572a12.935,12.935,0,0,0,.014,1.652c.034.9.086,2.09.127,3.391s.07,2.715.057,4.063a33.93,33.93,0,0,1-.2,3.667,3.673,3.673,0,0,1-.427,1.456,1.142,1.142,0,0,1-.651.538,1.459,1.459,0,0,1-.688.011c-.215-.04-.405-.1-.54-.123-.287-.042-.472-.939-.586-2.275s-.16-3.111-.169-4.908.018-3.618.047-5.044.061-2.46.061-2.684q0-1.405,0-2.811t.011-2.811q.01-1.405.037-2.81t.083-2.808c.015-.369.051-.746.066-1.108a3.959,3.959,0,0,0-.059-1.012,1.38,1.38,0,0,0-.436-.775,1.906,1.906,0,0,0-1.066-.4,2.9,2.9,0,0,0-1.248.1,1.768,1.768,0,0,0-.831.578,2.594,2.594,0,0,0-.467,1,5.791,5.791,0,0,0-.155,1.355q-.06,5.574-.133,11.148t-.153,11.147q-.081,5.573-.168,11.147t-.175,11.146c-.007.429-.023.858-.046,1.287s-.052.857-.084,1.286-.067.857-.1,1.285-.07.857-.1,1.285c-.021.291-.042.585-.036.865a2.5,2.5,0,0,0,.118.778,1.17,1.17,0,0,0,.424.582,1.714,1.714,0,0,0,.88.279,4.9,4.9,0,0,0,1.072-.02,2.454,2.454,0,0,0,.911-.3,1.761,1.761,0,0,0,.655-.68,2.758,2.758,0,0,0,.3-1.155c.013-.2.017-.4.015-.6s-.009-.4-.017-.607-.017-.405-.023-.608-.008-.4,0-.607q.089-3.176.178-6.353t.181-6.353q.092-3.176.188-6.353t.2-6.353c.009-.265.006-.542.026-.818a2.862,2.862,0,0,1,.163-.814,1.887,1.887,0,0,1,.5-.739,3.038,3.038,0,0,1,1.049-.591,10.031,10.031,0,0,1,1.06,2.39,13.689,13.689,0,0,1,.482,2.5c.089.845.119,1.7.128,2.558s0,1.718,0,2.574q.011,2.82.014,5.644t0,5.673q0,2.849,0,5.731t0,5.817c1.131.132,2.261.214,3.391.263s2.26.065,3.389.065,2.259-.016,3.387-.031,2.258-.029,3.387-.025l5.417.019q2.711.01,5.424.028t5.43.055q2.717.037,5.436.1a16.544,16.544,0,0,0,2.322-.057,2.508,2.508,0,0,0,1.356-.5,2.171,2.171,0,0,0,.653-1.237,12.307,12.307,0,0,0,.214-2.268,29.411,29.411,0,0,1,.4-3.864c.207-1.277.468-2.546.72-3.816s.5-2.542.67-3.823a24.762,24.762,0,0,0,.247-3.886,1.727,1.727,0,0,1,.1-.626,1.6,1.6,0,0,1,.3-.512,1.658,1.658,0,0,1,.466-.369,1.838,1.838,0,0,1,.593-.195c.726-.11,1.456-.209,2.179-.259a10.888,10.888,0,0,1,2.133.039,6.6,6.6,0,0,1,2.017.576,6.146,6.146,0,0,1,1.833,1.351,10.314,10.314,0,0,1,1.317,1.7,7.659,7.659,0,0,1,.829,1.856,7.057,7.057,0,0,1,.28,2.035,8.5,8.5,0,0,1-.331,2.237,18.222,18.222,0,0,1-1.082,2.978,8.609,8.609,0,0,1-1.581,2.331,5.988,5.988,0,0,1-2.3,1.47,8.227,8.227,0,0,1-3.234.4,2.17,2.17,0,0,0-1.06.172,1.506,1.506,0,0,0-.644.582,2.507,2.507,0,0,0-.315.877,5.422,5.422,0,0,0-.073,1.055,2.2,2.2,0,0,0,.191.926,1.34,1.34,0,0,0,.485.553,1.968,1.968,0,0,0,.709.267,4.5,4.5,0,0,0,.862.066c.075,0,.15-.005.225-.011l.226-.02c.075-.006.15-.011.224-.012a1.424,1.424,0,0,1,.221.014,16.113,16.113,0,0,0,3.823.165,8.051,8.051,0,0,0,3.152-.906,6.953,6.953,0,0,0,2.425-2.241,12.261,12.261,0,0,0,1.644-3.839,19.9,19.9,0,0,1,1.009-2.895,25.239,25.239,0,0,1,1.416-2.76c.529-.9,1.111-1.773,1.728-2.626s1.272-1.684,1.947-2.492a4.963,4.963,0,0,1,1.219-1.085,2.493,2.493,0,0,1,1.239-.391,1.9,1.9,0,0,1,1.16.376,3.365,3.365,0,0,1,.979,1.216c.4.784.757,1.589,1.093,2.4s.653,1.639.984,2.459.677,1.637,1.069,2.439a18.665,18.665,0,0,0,1.348,2.343,1.9,1.9,0,0,1,.225,1.023,6.628,6.628,0,0,1-.2,1.519,9.24,9.24,0,0,1-.573,1.673,6.763,6.763,0,0,1-.9,1.484,1.836,1.836,0,0,1-.915-.721,4.941,4.941,0,0,1-.483-1.01,4.24,4.24,0,0,0-.462-.953,1.328,1.328,0,0,0-.851-.553c-.342-.068-.687-.12-1.034-.161s-.7-.069-1.047-.092-.7-.038-1.053-.052-.7-.027-1.052-.043a3.634,3.634,0,0,0-1.461.228,4.618,4.618,0,0,0-1.206.693,9.6,9.6,0,0,0-1.032.953c-.324.338-.633.686-.939,1.008a1.565,1.565,0,0,0-.418.834,1.633,1.633,0,0,0,.1.88,1.667,1.667,0,0,0,.555.711,1.721,1.721,0,0,0,.932.326q1.609.09,3.221.133t3.227.057q1.615.014,3.231.006t3.233-.022a1.587,1.587,0,0,0,.667-.141,1.255,1.255,0,0,0,.476-.389,1.546,1.546,0,0,0,.264-.6,2.469,2.469,0,0,0,.031-.784,15.358,15.358,0,0,1,.241-5.037,13.783,13.783,0,0,1,1.713-4.2,18.465,18.465,0,0,1,2.887-3.558,32.258,32.258,0,0,1,3.763-3.105,16.308,16.308,0,0,1,1.6-1.042,5.193,5.193,0,0,1,1.549-.593,3.08,3.08,0,0,1,1.573.108,4.7,4.7,0,0,1,1.672,1.061,5.388,5.388,0,0,1,.43.446,4.571,4.571,0,0,1,.361.482,4.263,4.263,0,0,1,.291.526,4.4,4.4,0,0,1,.22.578c.06.2.13.4.187.593a2.626,2.626,0,0,1,.113.584,1.125,1.125,0,0,1-.1.549,1.24,1.24,0,0,1-.441.49,1.163,1.163,0,0,1-.528.21,1.046,1.046,0,0,1-.489-.065,1.823,1.823,0,0,1-.45-.255,4.145,4.145,0,0,1-.412-.36,3.535,3.535,0,0,0-1.167-.8,2.245,2.245,0,0,0-1.123-.14,3.308,3.308,0,0,0-1.113.376,8.036,8.036,0,0,0-1.136.751c-.779.6-1.526,1.217-2.221,1.871a17.6,17.6,0,0,0-1.908,2.087,12.965,12.965,0,0,0-1.472,2.4,11.994,11.994,0,0,0-.914,2.812,4.462,4.462,0,0,0-.062,1.476,3.041,3.041,0,0,0,.422,1.189,3.406,3.406,0,0,0,.867.93,5.6,5.6,0,0,0,1.273.7,3.158,3.158,0,0,0,.765.211,2.086,2.086,0,0,0,1.36-.268,3.094,3.094,0,0,0,.625-.486,2.255,2.255,0,0,0,.451-.605,1.473,1.473,0,0,0,.155-.613,1.616,1.616,0,0,0-.112-.62,2.665,2.665,0,0,0-.351-.625A2.539,2.539,0,0,1,196.1,256a1.922,1.922,0,0,1,.434-1.143,8.7,8.7,0,0,1,.91-.966,4.949,4.949,0,0,0,.835-.978,1.584,1.584,0,0,1,.471-.516,1.4,1.4,0,0,1,.6-.229,1.736,1.736,0,0,1,.666.041,2.4,2.4,0,0,1,.682.3,2.859,2.859,0,0,1,.888.839,2.891,2.891,0,0,1,.416,1.009,5.23,5.23,0,0,1,.1,1.114c0,.382-.027.77-.053,1.153a3.681,3.681,0,0,1-.077.523c-.037.173-.084.346-.134.518s-.1.344-.156.517-.1.345-.141.519a4.018,4.018,0,0,0-.115,1.319,1.689,1.689,0,0,0,.355.92,1.5,1.5,0,0,0,.822.489,3.385,3.385,0,0,0,1.286.024q.72-.1,1.436-.154t1.431-.051q.715,0,1.43.043t1.433.129a3.788,3.788,0,0,0,1.314-.041,1.9,1.9,0,0,0,.907-.482,2.288,2.288,0,0,0,.55-.917,5.334,5.334,0,0,0,.246-1.345q.087-1.223.213-2.444t.274-2.439q.148-1.219.313-2.436t.329-2.433a8.371,8.371,0,0,1,.541-2.126,4.224,4.224,0,0,1,2.5-2.432,8.252,8.252,0,0,1,2.078-.471c.5-.055,1-.121,1.5-.191s1-.144,1.5-.217,1-.146,1.5-.212,1-.126,1.5-.175a5.023,5.023,0,0,1,1.045,0,2.706,2.706,0,0,1,.928.262,1.6,1.6,0,0,1,.664.612,2.016,2.016,0,0,1,.252,1.049,1.619,1.619,0,0,1-.237.956.977.977,0,0,1-.613.376,3.5,3.5,0,0,1-.855.049c-.31-.01-.638-.033-.961-.025-.523.012-1.048.051-1.572.11s-1.048.14-1.57.238-1.042.211-1.558.336-1.028.261-1.535.4a2.289,2.289,0,0,0-.91.486,2.258,2.258,0,0,0-.56.772,2.993,2.993,0,0,0-.242.955,3.954,3.954,0,0,0,.047,1.033,1.525,1.525,0,0,0,.4.881,1.015,1.015,0,0,0,.668.259,3.421,3.421,0,0,0,.807-.083c.278-.053.558-.117.818-.144a1.167,1.167,0,0,0,.149-.027c.05-.012.1-.026.148-.039s.1-.026.148-.036a.907.907,0,0,1,.149-.019c.406-.014.859-.086,1.314-.147a6.84,6.84,0,0,1,1.327-.083,1.747,1.747,0,0,1,1.073.387,1.873,1.873,0,0,1,.55,1.263,1.7,1.7,0,0,1-.259,1.337,1.321,1.321,0,0,1-.952.383,9.832,9.832,0,0,1-1.258-.045,3.737,3.737,0,0,0-1.177.052,15.2,15.2,0,0,1-1.667.307,9.447,9.447,0,0,0-1.661.363,2.453,2.453,0,0,0-1.232.84,2.528,2.528,0,0,0-.382,1.737,2.471,2.471,0,0,0,.643,1.65,2.113,2.113,0,0,0,1.314.536,7.829,7.829,0,0,0,1.63-.066c.557-.066,1.107-.146,1.591-.157.742-.016,1.47-.061,2.192-.1s1.439-.059,2.16-.034a12.1,12.1,0,0,1,2.184.26,10.084,10.084,0,0,1,2.264.785,5.87,5.87,0,0,0,1.859.511,12.684,12.684,0,0,0,2.111.052c.728-.034,1.473-.108,2.208-.184s1.461-.154,2.151-.2c2.032-.126,4.064-.186,6.1-.208s4.068-.009,6.1.013,4.071.052,6.108.061,4.075,0,6.114-.066c.122,0,.243-.014.365-.029s.246-.034.372-.055l.386-.067c.132-.023.267-.046.408-.067a15.759,15.759,0,0,1-.9-4.347,24.383,24.383,0,0,1,.129-4.274c.153-1.416.385-2.824.6-4.23s.427-2.808.53-4.212a2.484,2.484,0,0,1,.4-1.271,1.334,1.334,0,0,1,.842-.556,1.8,1.8,0,0,1,1.1.171,3.641,3.641,0,0,1,1.165.912,16.23,16.23,0,0,1,1.281,1.653,16.536,16.536,0,0,1,1.048,1.782,17.709,17.709,0,0,1,.828,1.9,19.761,19.761,0,0,1,.62,2.02c.142.568.286,1.138.452,1.7a15.82,15.82,0,0,0,.584,1.674,10.162,10.162,0,0,0,.838,1.6,8.724,8.724,0,0,0,1.215,1.489,3.755,3.755,0,0,0,.992-1.049,3.288,3.288,0,0,0,.437-1.166,5.039,5.039,0,0,0,.048-1.24,12.241,12.241,0,0,0-.173-1.272,17.614,17.614,0,0,1-.265-3.191,25,25,0,0,1,.228-3.142c.137-1.041.323-2.077.526-3.111s.424-2.066.63-3.1a5.742,5.742,0,0,1,.221-.822,2.753,2.753,0,0,1,.392-.748,1.4,1.4,0,0,1,.629-.479,1.563,1.563,0,0,1,.933-.016,2.017,2.017,0,0,1,1.427,1.262,2.354,2.354,0,0,1,.152.906,2.209,2.209,0,0,1-.2.866,14.211,14.211,0,0,0-1.031,3.13,20.051,20.051,0,0,0-.382,3.179c-.05,1.066-.038,2.137-.01,3.212s.072,2.151.085,3.229c.005.409-.011.82-.042,1.23s-.076.821-.13,1.231-.116.82-.18,1.229-.131.818-.193,1.225c-.035.227-.092.454-.142.678a3.632,3.632,0,0,0-.1.66,1.309,1.309,0,0,0,.115.621,1.426,1.426,0,0,0,.509.559,2.479,2.479,0,0,0,.413.23,1.75,1.75,0,0,0,.436.127,1.326,1.326,0,0,0,.893-.176,1.409,1.409,0,0,0,.555-.549,1.268,1.268,0,0,0,.135-.636,2.939,2.939,0,0,0-.113-.67c-.06-.223-.132-.443-.188-.651a9.7,9.7,0,0,1-.338-3.065,9.45,9.45,0,0,1,.582-2.769,12.761,12.761,0,0,1,1.29-2.528,21.386,21.386,0,0,1,1.786-2.342,11.071,11.071,0,0,1,1.483-1.433,7.79,7.79,0,0,1,1.7-1.04,5.713,5.713,0,0,1,1.885-.479,5.458,5.458,0,0,1,3.8,1.21,6.66,6.66,0,0,1,1.3,1.457,10.892,10.892,0,0,1,.951,1.779c.27.627.5,1.278.7,1.924a9.074,9.074,0,0,1,.308,1.269,8.561,8.561,0,0,1,.116,1.294,8.454,8.454,0,0,1-.085,1.312,8.792,8.792,0,0,1-.3,1.322c-.1.313-.182.632-.25.962a7.544,7.544,0,0,0-.143,1.027,6.92,6.92,0,0,0,.016,1.124,7.832,7.832,0,0,0,.226,1.251q1.38.125,2.775.193t2.8.072q1.406,0,2.819-.056t2.828-.192a1.864,1.864,0,0,0,.888-.3,1.772,1.772,0,0,0,.556-.621,2.437,2.437,0,0,0,.264-.8,3.064,3.064,0,0,0,.011-.843c-.085-.675-.137-1.345-.161-2.013s-.022-1.333,0-2,.073-1.327.137-1.99.147-1.327.241-1.993a5.407,5.407,0,0,0,.061-.764,2.534,2.534,0,0,0-.1-.748,1.481,1.481,0,0,0-.377-.631,1.709,1.709,0,0,0-.764-.413,1.426,1.426,0,0,0-.766-.027,1.094,1.094,0,0,0-.519.332,2.517,2.517,0,0,0-.364.556c-.106.208-.2.43-.3.646a3.652,3.652,0,0,1-.322.565,1.685,1.685,0,0,1-.417.425.929.929,0,0,1-.527.168,1.264,1.264,0,0,1-.651-.206c-.33-.2-.664-.4-.985-.617a6.936,6.936,0,0,1-.9-.713,3.948,3.948,0,0,1-.708-.886,3.347,3.347,0,0,1-.4-1.136,1.938,1.938,0,0,1,.013-.752,1.487,1.487,0,0,1,.282-.593,1.664,1.664,0,0,1,.508-.424,2.342,2.342,0,0,1,.689-.243c1.136-.22,2.272-.443,3.41-.653s2.279-.409,3.423-.581,2.293-.318,3.447-.424,2.314-.171,3.482-.182a4.375,4.375,0,0,1,.635.035,2.2,2.2,0,0,1,.588.158,1.336,1.336,0,0,1,.475.342,1.4,1.4,0,0,1,.3.588,1.269,1.269,0,0,1,.02.586,1.072,1.072,0,0,1-.226.461,1.38,1.38,0,0,1-.41.328,1.923,1.923,0,0,1-.53.188,5.931,5.931,0,0,0-2.889,1.344,4.876,4.876,0,0,0-1.359,2.2,10.562,10.562,0,0,0-.414,2.649c-.045.913-.031,1.833-.053,2.693-.043,1.649-.108,2.876-.066,3.789a2.768,2.768,0,0,0,.58,1.9,3.107,3.107,0,0,0,2.006.663c.993.086,2.355.074,4.215.071q5.427-.009,10.862-.034t10.887-.051q5.452-.026,10.913-.043t10.94-.01c.724,0,1.448.048,2.176.1s1.46.123,2.2.162a18.594,18.594,0,0,0,2.244,0,11.649,11.649,0,0,0,2.31-.38c-.278-.457-.589-.9-.9-1.344s-.618-.892-.89-1.359a7.325,7.325,0,0,1-.674-1.474,5.241,5.241,0,0,1-.25-1.691,15.446,15.446,0,0,1,.7-4.411,15.006,15.006,0,0,1,1.788-3.742,19.166,19.166,0,0,1,2.667-3.195,29.353,29.353,0,0,1,3.336-2.768,2.736,2.736,0,0,1,1.482-.544,2.8,2.8,0,0,1,1.473.36,4.429,4.429,0,0,1,1.319,1.14,6.928,6.928,0,0,1,1.019,1.8,17.414,17.414,0,0,1,1.261,5.263,11.3,11.3,0,0,1-.658,4.7,12.729,12.729,0,0,1-2.654,4.207,22.8,22.8,0,0,1-4.722,3.793c1.42-.039,2.8-.042,4.154-.04s2.685.009,4.006-.013,2.635-.071,3.955-.18a36.844,36.844,0,0,0,4-.542,11.679,11.679,0,0,1-2.806-3.563,8.592,8.592,0,0,1-.874-3.645,12.173,12.173,0,0,1,.562-3.713,26.268,26.268,0,0,1,1.5-3.766,5.665,5.665,0,0,1,.556-.95,2.3,2.3,0,0,1,.689-.642,1.322,1.322,0,0,1,.854-.163,2.327,2.327,0,0,1,1.05.486,3.231,3.231,0,0,1,.76.773,1.69,1.69,0,0,1,.3.844,1.5,1.5,0,0,1-.232.869,2.924,2.924,0,0,1-.842.848,1.871,1.871,0,0,0-.407.386,2.183,2.183,0,0,0-.269.456,3.754,3.754,0,0,0-.178.506c-.049.175-.092.355-.135.536-.141.6-.331,1.2-.5,1.81a9.114,9.114,0,0,0-.337,1.8,3.593,3.593,0,0,0,.272,1.707,3.8,3.8,0,0,0,1.332,1.542,1.942,1.942,0,0,0,1.437.285,4.644,4.644,0,0,0,1.746-.7,8.242,8.242,0,0,0,1.737-1.483,9.28,9.28,0,0,0,1.41-2.079,20.714,20.714,0,0,0,.911-2.162c.264-.735.492-1.483.7-2.239s.384-1.519.553-2.286.324-1.536.48-2.3c.059-.293.112-.6.182-.892a3.209,3.209,0,0,1,.284-.8,1.209,1.209,0,0,1,.53-.53,1.507,1.507,0,0,1,.919-.086,1.833,1.833,0,0,1,.953.418,1.435,1.435,0,0,1,.426.738,2.729,2.729,0,0,1,.046.918,5.9,5.9,0,0,1-.187.959q-.387,1.418-.636,2.842t-.357,2.858q-.108,1.434-.076,2.882t.206,2.911c.032.267.074.56.1.858a4.014,4.014,0,0,1-.01.884,1.708,1.708,0,0,1-.291.774,1.5,1.5,0,0,1-.744.528,1.32,1.32,0,0,1-1.025.025,1.382,1.382,0,0,1-.584-.62c-.152-.274-.278-.594-.423-.9a2.68,2.68,0,0,0-.545-.819q-.565.551-1.142,1.078t-1.179,1.03q-.6.5-1.235.982t-1.31.935c.331.021.662.045.993.069s.662.05.993.073.662.045.993.062.662.03.994.035c.755.013,1.511.023,2.272.03s1.529.013,2.31.017l2.383.011c.811,0,1.64.008,2.493.013a12.724,12.724,0,0,1-1.369-3.756,16.856,16.856,0,0,1-.273-3.676c.029-1.213.148-2.414.264-3.6s.228-2.369.244-3.539a3.911,3.911,0,0,1,.375-1.768,1.8,1.8,0,0,1,.981-.889,2.519,2.519,0,0,1,1.462-.026,6.166,6.166,0,0,1,1.816.822,13.5,13.5,0,0,1,1.346.98,15.651,15.651,0,0,1,1.216,1.119c.386.394.753.806,1.106,1.234s.691.87,1.017,1.323c.26.361.519.723.8,1.075a9.664,9.664,0,0,0,.9,1.006,6.292,6.292,0,0,0,1.1.855,6.033,6.033,0,0,0,1.418.622,6.274,6.274,0,0,0,1.007-1.8,9.29,9.29,0,0,0,.458-1.927c.091-.656.137-1.322.182-1.987s.09-1.327.181-1.976c.065-.466.119-.934.166-1.4s.09-.938.132-1.407.084-.939.131-1.408.1-.937.163-1.4a2.435,2.435,0,0,1,.167-.625,1.667,1.667,0,0,1,.327-.507,1.329,1.329,0,0,1,.5-.329,1.639,1.639,0,0,1,.682-.09,1.941,1.941,0,0,1,.683.169,1.732,1.732,0,0,1,.531.373,1.454,1.454,0,0,1,.324.518,1.265,1.265,0,0,1,.062.6c-.205,1.47-.329,2.951-.431,4.436s-.183,2.973-.3,4.454-.272,2.957-.523,4.417a26.217,26.217,0,0,1-1.1,4.323,2,2,0,0,1-.668.979,1.608,1.608,0,0,1-.941.3,3.07,3.07,0,0,1-1.079-.2,5.916,5.916,0,0,1-1.081-.527,12.115,12.115,0,0,1-1.713-1.279c-.531-.469-1.027-.973-1.51-1.492s-.952-1.052-1.428-1.579-.957-1.047-1.464-1.54c-.206-.2-.4-.414-.592-.63s-.393-.436-.611-.647a5.108,5.108,0,0,0-.73-.6,4.384,4.384,0,0,0-.952-.476,11.3,11.3,0,0,0-.814,2.336,13.016,13.016,0,0,0-.312,2.354,18.65,18.65,0,0,0,.057,2.372c.066.794.171,1.59.293,2.39a1.815,1.815,0,0,0,.268.753,1.164,1.164,0,0,0,.474.405,1.985,1.985,0,0,0,.627.165,6.391,6.391,0,0,0,.727.032q1.862,0,3.725.017t3.728.026q1.865.01,3.731.008t3.733-.038a4.238,4.238,0,0,0,1.642-.33,2.739,2.739,0,0,0,1.108-.868,2.938,2.938,0,0,0,.534-1.331,4.808,4.808,0,0,0-.081-1.717,12.4,12.4,0,0,1-.244-2.985,25.7,25.7,0,0,1,.294-2.951c.144-.982.313-1.963.441-2.948a20.257,20.257,0,0,0,.2-2.975c-.011-.609.11-.927.314-1.062a.916.916,0,0,1,.812.033c.321.121.677.314,1.019.471a2,2,0,0,0,.935.251,12.525,12.525,0,0,1,1.9-3.162,4.281,4.281,0,0,1,2.191-1.432,4.467,4.467,0,0,1,2.643.257,13.445,13.445,0,0,1,3.257,1.9,9.969,9.969,0,0,1,3.063,3.614,8.129,8.129,0,0,1,.791,4.191,9.545,9.545,0,0,1-1.448,4.27,13.862,13.862,0,0,1-3.65,3.85c-.266.195-.54.378-.831.561s-.6.364-.932.557-.691.395-1.082.619-.815.469-1.28.747c1.353.009,2.658.022,3.926.036s2.5.03,3.708.042,2.392.021,3.563.022,2.331-.005,3.491-.023q5.309-.082,10.626-.186t10.65-.208q5.333-.1,10.674-.2t10.7-.161q4.388-.053,8.782-.07t8.8-.022q4.405-.005,8.816-.01t8.832-.036q4.581-.032,9.168-.049t9.186-.054q4.6-.037,9.2-.111t9.216-.221c3.148-.1,6.3-.144,9.454-.164s6.315-.016,9.475-.02,6.325-.017,9.487-.071,6.329-.148,9.491-.316c2.142-.114,4.288-.138,6.439-.13s4.31.048,6.476.063,4.342,0,6.528-.091a65.868,65.868,0,0,0,6.6-.593c.071.38.124.76.163,1.145s.066.775.084,1.174.026.807.031,1.229,0,.857,0,1.31a27.512,27.512,0,0,0-3.882-.211c-1.292.013-2.583.094-3.874.194s-2.581.218-3.871.307-2.582.147-3.874.128q-4.578-.069-9.151-.043t-9.135.095q-4.562.068-9.118.152t-9.1.13q-5.2.053-10.4.1t-10.377.088l-10.354.085q-5.169.043-10.331.089l-11.9.107q-5.941.054-11.872.113t-11.84.132q-5.91.073-11.808.165c-3.085.049-6.169.071-9.251.083s-6.158.015-9.233.024-6.144.024-9.211.061-6.128.1-9.187.2q-4.7.151-9.4.219t-9.384.106q-4.686.038-9.365.072t-9.343.116c-2.1.037-4.2.085-6.3.126s-4.205.078-6.31.093-4.208.008-6.312-.035-4.207-.125-6.311-.259c-1.956-.125-3.914-.191-5.875-.217s-3.921-.011-5.882.028-3.921.1-5.88.167-3.915.14-5.868.2c-3.1.1-6.2.149-9.3.176s-6.191.032-9.284.035-6.178,0-9.263.028-6.163.068-9.239.156c-2.557.073-5.113.091-7.666.083s-5.1-.042-7.652-.074-5.093-.06-7.638-.057-5.084.037-7.624.132c-.843.031-1.688.015-2.534-.027s-1.692-.108-2.539-.176-1.693-.139-2.539-.189-1.69-.079-2.534-.064q-4.192.074-8.379.183t-8.362.225q-4.176.116-8.347.227t-8.333.187q-2.474.046-4.947.046t-4.943-.015q-2.47-.015-4.938-.031t-4.933,0q-2.85.015-5.695-.008t-5.684-.1q-2.839-.078-5.676-.218t-5.671-.361c-1.127-.088-2.268-.158-3.412-.2s-2.293-.049-3.435-.015-2.278.113-3.4.248a28.176,28.176,0,0,0-3.3.592,19.123,19.123,0,0,1-2.093.4,11.561,11.561,0,0,1-1.94.1,9.591,9.591,0,0,1-1.888-.262,11.153,11.153,0,0,1-1.937-.67,4.591,4.591,0,0,0-1.6-.379,8.609,8.609,0,0,0-1.645.078c-.553.071-1.11.172-1.665.256a11.733,11.733,0,0,1-1.661.156q-4.474.034-8.943.076t-8.925.087l-8.907.091q-4.448.045-8.89.087l-7.669.073q-3.83.036-7.656.07t-7.643.06q-3.817.026-7.63.041c-.69,0-1.379-.034-2.067-.082s-1.377-.106-2.066-.145-1.378-.061-2.069-.035a11.954,11.954,0,0,0-2.077.248,5.217,5.217,0,0,0-1.081.335,2.142,2.142,0,0,0-.739.533,2.227,2.227,0,0,0-.443.842,5.489,5.489,0,0,0-.194,1.26q-.174,3.054-.346,6.116t-.311,6.121q-.139,3.059-.227,6.113t-.1,6.09q0,2.122-.014,4.258t-.009,4.279q0,2.143.018,4.287t.068,4.284q.027,1.158.021,2.319t-.048,2.322q-.043,1.16-.124,2.317t-.206,2.3a4.108,4.108,0,0,0,.036,1.347,1.572,1.572,0,0,0,.446.824,1.815,1.815,0,0,0,.826.415,5.18,5.18,0,0,0,1.176.121l4.154.035q2.078.017,4.158.039t4.161.055q2.082.034,4.165.084,5.98.149,11.969.154t12-.052q6.009-.058,12.028-.139t12.061-.106q3.493-.014,6.989-.023t7-.021q3.5-.013,7.011-.036t7.021-.067q4.343-.055,8.69-.136t8.706-.166q4.359-.085,8.723-.162t8.741-.124q3.121-.033,6.246-.029t6.256.022q3.131.017,6.265.034t6.273.01q5.318-.013,10.644-.078t10.669-.11q5.343-.045,10.693-.035t10.716.147c2.621.067,5.241.075,7.862.053s5.243-.075,7.867-.129,5.251-.111,7.879-.14,5.263-.033,7.9.02c2.924.058,5.851.058,8.78.023s5.863-.106,8.8-.19,5.875-.183,8.816-.274,5.887-.173,8.833-.226q4.5-.081,9.012-.182t9.029-.211l9.046-.221q4.529-.11,9.063-.213t9.079-.137q4.546-.043,9.1-.065t9.116-.082q4.564-.06,9.133-.188c4.111-.122,8.228-.191,12.349-.228s8.256-.044,12.39-.04,8.28.017,12.426.018,8.3-.01,12.457-.055q5.56-.06,11.127-.163t11.152-.222q5.585-.12,11.178-.244t11.206-.23c2.842-.053,5.687-.086,8.534-.114s5.7-.052,8.552-.086,5.708-.079,8.563-.15,5.713-.168,8.568-.307,5.722-.233,8.587-.3,5.736-.123,8.608-.175,5.748-.108,8.625-.19,5.759-.191,8.64-.35c1.925-.107,3.861-.2,5.808-.278s3.905-.13,5.874-.153,3.951-.015,5.944.035,4,.142,6.015.286c.059.348.1.691.137,1.035s.056.689.071,1.04.022.709.026,1.078,0,.751,0,1.15c-2.666.149-5.33.3-7.993.447s-5.321.28-7.979.392-5.312.2-7.966.252-5.3.066-7.952.029q-4.2-.058-8.39-.045t-8.37.087q-4.178.074-8.344.2t-8.315.309c-3.78.162-7.558.272-11.334.352s-7.542.129-11.308.17-7.524.074-11.281.121-7.5.107-11.251.2q-6.306.162-12.6.217t-12.577.064q-6.278.009-12.545,0t-12.511.034c-2.377.015-4.755.018-7.131.02s-4.749.006-7.121.022-4.74.045-7.105.1-4.726.135-7.084.254c-1.98.1-3.961.147-5.941.168s-3.957.016-5.933.013-3.948-.007-5.917.017-3.934.076-5.894.182c-4.028.217-8.055.353-12.079.444s-8.038.137-12.053.175-8.019.067-12.022.125-8,.143-11.985.293c-2.241.084-4.482.136-6.723.169s-4.48.046-6.719.053-4.475.009-6.711.018-4.468.025-6.7.061c-2.276.037-4.55.1-6.823.17s-4.543.149-6.812.217-4.535.128-6.8.16-4.528.037-6.791,0q-3.363-.059-6.725-.075t-6.715.01q-3.352.027-6.7.1t-6.667.183c-3.488.119-6.973.14-10.456.116s-6.956-.092-10.43-.153-6.939-.112-10.4-.1-6.921.08-10.376.264c-1.875.1-3.753.138-5.632.143s-3.759-.024-5.638-.057-3.757-.071-5.634-.085-3.75,0-5.62.059c-3.061.1-6.122.142-9.18.149s-6.111-.017-9.163-.042-6.1-.05-9.142-.044-6.081.042-9.116.142c-2.009.066-4.016.1-6.022.107s-4.008,0-6.011-.012-4-.032-6-.04-4-.006-5.992.022q-6.738.095-13.462.225t-13.422.22q-6.7.09-13.385.1t-13.35-.126a9.075,9.075,0,0,0-2,.123,2.063,2.063,0,0,0-1.162.6,2.452,2.452,0,0,0-.532,1.268,12.276,12.276,0,0,0-.11,2.128c.021,1.793.059,3.589.1,5.385s.086,3.594.121,5.389.061,3.588.064,5.376-.016,3.571-.071,5.346c-.062,1.985-.084,3.973-.092,5.962s0,3.979-.013,5.968-.03,3.978-.09,5.966-.159,3.972-.324,5.954a11.055,11.055,0,0,0-.026,1.272c.014.427.047.855.089,1.285s.092.86.141,1.29.1.86.132,1.288a2.1,2.1,0,0,0,.259.906,1.41,1.41,0,0,0,.535.52,2.244,2.244,0,0,0,.727.24,5.553,5.553,0,0,0,.836.065l6.45.091,6.459.088,6.469.087,6.478.089q2.37.033,4.742.074l4.747.08q2.375.039,4.752.069t4.757.043q3.253.017,6.509.015t6.518-.007q3.262-.006,6.528-.008t6.538.014c2.682.013,5.363-.01,8.046-.053s5.369-.107,8.056-.177,5.378-.144,8.069-.208,5.388-.119,8.086-.148c2.849-.031,5.7-.033,8.556-.033s5.715,0,8.575-.017,5.725-.063,8.589-.155,5.732-.231,8.6-.445c1.278-.1,2.563-.142,3.851-.16s2.582-.008,3.877.009,2.593.041,3.89.051,2.595.006,3.89-.033c.389-.012.773-.017,1.153-.03s.756-.035,1.126-.08a6.72,6.72,0,0,0,1.1-.219,5.026,5.026,0,0,0,1.063-.447c.107-.06.222-.123.342-.181a3.506,3.506,0,0,1,.368-.156,1.926,1.926,0,0,1,.37-.094,1.016,1.016,0,0,1,.347.006,48.489,48.489,0,0,0,6.793.893c2.268.146,4.538.163,6.808.118s4.543-.153,6.812-.257,4.54-.2,6.805-.231q6.129-.076,12.272-.139t12.307-.154q6.164-.091,12.336-.228t12.36-.36q5.055-.182,10.12-.3t10.145-.234q5.08-.115,10.167-.257t10.185-.37c3.031-.136,6.069-.207,9.11-.242s6.091-.034,9.142-.026,6.107.021,9.163.013,6.117-.041,9.175-.125q3.007-.083,6.018-.143t6.028-.111l6.035-.1q3.02-.051,6.04-.109,3.184-.064,6.374-.132t6.387-.127q3.2-.059,6.4-.1t6.409-.049q4.851-.012,9.708-.07t9.727-.14q4.87-.082,9.746-.177t9.766-.182l7.417-.13q3.713-.065,7.429-.138t7.439-.168q3.723-.095,7.448-.218,6.659-.223,13.335-.354t13.377-.242q6.7-.11,13.416-.235t13.452-.335q3.81-.119,7.632-.233t7.656-.192q3.834-.078,7.676-.1t7.692.033c.495.008.99,0,1.489-.024s1-.054,1.516-.09,1.035-.077,1.57-.115,1.084-.074,1.651-.1c.071.387.125.772.162,1.16s.056.778.06,1.175-.008.8-.036,1.211-.07.834-.126,1.27a27.377,27.377,0,0,1-3.427.257c-1.13.019-2.249-.017-3.362-.068s-2.219-.12-3.323-.166-2.206-.072-3.31-.037q-5.878.183-11.749.3t-11.725.2q-5.853.089-11.7.174t-11.667.209q-4.567.1-9.126.226t-9.107.266q-4.548.137-9.089.272t-9.073.244q-5.673.137-11.337.267t-11.31.251q-5.646.121-11.283.23t-11.257.2q-5.3.089-10.585.144t-10.563.107q-5.273.052-10.538.117t-10.512.172q-4.763.1-9.519.2t-9.5.194q-4.743.091-9.481.161t-9.465.1q-4.778.031-9.548.139t-9.525.241q-4.756.133-9.505.266t-9.488.216q-5.824.1-11.637.209l-11.608.214q-5.794.106-11.578.209t-11.548.193q-6.122.1-12.231.262t-12.2.324q-6.087.159-12.165.275t-12.139.114c-3.241,0-6.477.06-9.709.149s-6.457.2-9.682.314-6.444.212-9.665.273-6.437.081-9.658.026q-4.678-.081-9.351-.092t-9.332.037q-4.659.049-9.309.154t-9.284.258c-2.912.1-5.822.146-8.731.17s-5.812.021-8.716.013-5.8-.022-8.7-.022-5.789.015-8.681.064q-3.242.055-6.483.054t-6.477-.03q-3.236-.029-6.469-.072t-6.459-.074c-2.18-.021-4.358-.012-6.536,0s-4.352.027-6.526.02-4.346-.037-6.518-.115-4.341-.205-6.51-.406a9.24,9.24,0,0,0-1.025-.035c-.344.006-.69.03-1.035.066s-.689.085-1.031.143-.68.125-1.014.2a4.573,4.573,0,0,0-.928.293,2.234,2.234,0,0,0-.728.5,1.565,1.565,0,0,0-.393.784,2.544,2.544,0,0,0,.077,1.134c-.3-.006-.605-.013-.911-.022s-.615-.022-.93-.041-.636-.044-.967-.078-.67-.078-1.022-.134a3.205,3.205,0,0,0,.039-.937,1.307,1.307,0,0,0-.245-.636,1.29,1.29,0,0,0-.523-.392,3.072,3.072,0,0,0-.8-.206,3.927,3.927,0,0,0-1.186-.011,1.986,1.986,0,0,0-.886.361,1.906,1.906,0,0,0-.586.754,3.67,3.67,0,0,0-.284,1.167c-.206,0-.411-.009-.621-.017s-.423-.02-.644-.039-.45-.045-.69-.082-.492-.085-.76-.148a3.8,3.8,0,0,0-.469-1.427,2.161,2.161,0,0,0-.8-.787,2.659,2.659,0,0,0-1.018-.306,5.266,5.266,0,0,0-1.122.014c-1.593.169-3.186.239-4.779.249s-3.185-.039-4.777-.108-3.183-.158-4.774-.226-3.18-.116-4.77-.1q-5.1.04-10.2-.038t-10.177-.249q-5.081-.171-10.156-.421t-10.135-.554c-3.051-.183-6.1-.258-9.153-.287s-6.1-.011-9.142-.008-6.086-.008-9.127-.094-6.074-.248-9.106-.545c0-.258,0-.515,0-.778s.009-.53.02-.809.029-.567.055-.87.061-.623.107-.963q.824-.164,1.617-.284c.529-.08,1.05-.146,1.566-.2s1.025-.091,1.532-.116,1.011-.038,1.516-.038c5.113,0,10.231.085,15.356.206s10.267.281,15.409.438,10.3.31,15.464.418,10.339.17,15.518.144q3.449-.017,6.9.038t6.916.137q3.462.082,6.928.169t6.938.134a7.517,7.517,0,0,0,1.844-.15,1.878,1.878,0,0,0,1.057-.6,2.107,2.107,0,0,0,.411-1.184,9.1,9.1,0,0,0-.094-1.9c-.052-.4-.114-.805-.176-1.209s-.125-.808-.179-1.211-.1-.807-.127-1.209a10.786,10.786,0,0,1-.02-1.2c.158-3.65.2-7.3.191-10.961s-.059-7.314-.087-10.971-.032-7.313.059-10.966.278-7.3.631-10.947a5.907,5.907,0,0,0,.013-1.153,2.638,2.638,0,0,0-.281-.993,1.74,1.74,0,0,0-.709-.712,2.872,2.872,0,0,0-1.271-.31c-.831-.036-1.665-.1-2.5-.175s-1.667-.156-2.5-.226-1.662-.126-2.489-.15a22.905,22.905,0,0,0-2.47.053c-2.355.189-4.708.27-7.06.285s-4.7-.034-7.048-.106-4.692-.167-7.036-.242-4.684-.13-7.024-.122q-2.439.008-4.88-.005t-4.88-.048q-2.439-.035-4.878-.093t-4.873-.139q-4.953-.166-9.9-.242t-9.88-.111q-4.933-.035-9.859-.052T0,325.928c0-.307,0-.613,0-.925s.013-.627.03-.952.042-.659.08-1.006.089-.708.156-1.087q1.8-.1,3.554-.157t3.481-.077q1.727-.022,3.433-.021t3.41.009c4.855.021,9.716.094,14.582.182s9.749.19,14.631.272,9.781.142,14.679.144,9.813-.053,14.727-.2c1.977-.06,3.957-.06,5.938-.037s3.966.067,5.95.094,3.971.038,5.958-.008,3.974-.147,5.96-.343a5.094,5.094,0,0,0,1.267-.263,2.158,2.158,0,0,0,.848-.54,2.119,2.119,0,0,0,.478-.885,4.914,4.914,0,0,0,.158-1.3q.024-2.579.053-5.158t.076-5.158q.047-2.579.117-5.156t.177-5.153c.1-2.467.169-4.936.226-7.405s.106-4.94.172-7.409.151-4.937.28-7.4.3-4.929.549-7.389a3.91,3.91,0,0,0-.033-1.17,1.762,1.762,0,0,0-.381-.814,1.784,1.784,0,0,0-.746-.5,3.977,3.977,0,0,0-1.127-.215c-.71-.047-1.418-.067-2.126-.07s-1.414.01-2.12.029-1.411.045-2.115.066-1.408.039-2.111.041q-6.6.027-13.178,0t-13.14-.08q-6.557-.054-13.1-.123t-13.063-.129q-4.735-.043-9.463-.092t-9.443-.1l-9.423-.1-9.4-.1c0-.307,0-.613,0-.925s.013-.627.03-.952.042-.659.08-1.008.089-.71.156-1.091q4.363-.092,8.685-.127t8.626-.041q4.3-.006,8.592,0t8.583.009q5.633,0,11.276-.018t11.3-.037l11.333-.041q5.676-.019,11.362-.031,2.244,0,4.49.008t4.495.028q2.249.016,4.5.029t4.5.011c.4,0,.806,0,1.193-.035a3.116,3.116,0,0,0,1.064-.26,1.529,1.529,0,0,0,.735-.721,2.782,2.782,0,0,0,.207-1.418c-.133-1.973-.186-3.944-.188-5.913s.046-3.937.116-5.9.163-3.935.248-5.9.164-3.935.207-5.9c.041-1.892.057-3.785.067-5.678s.012-3.786.027-5.679.041-3.786.1-5.678.143-3.785.279-5.676a27.644,27.644,0,0,0,.092-3.491,4.461,4.461,0,0,0-.511-2.056,2.31,2.31,0,0,0-1.361-1,9.472,9.472,0,0,0-2.458-.32c-1.685-.059-3.37-.072-5.054-.062s-3.367.046-5.049.086-3.364.084-5.046.112-3.362.041-5.043.018c-2.688-.037-5.376-.012-8.063.036s-5.37.12-8.052.175-5.358.1-8.03.082-5.338-.082-8-.243c-2.288-.138-4.571-.183-6.852-.182s-4.555.049-6.83.1-4.544.093-6.814.091-4.537-.05-6.806-.193c-1.515-.1-3.031-.157-4.549-.2s-3.034-.056-4.552-.064-3.034-.006-4.55-.007-3.031-.005-4.544-.025c0-.307,0-.613,0-.924s.013-.626.03-.949.042-.655.08-1,.089-.7.157-1.074q2.339-.112,4.632-.182t4.561-.109q2.267-.039,4.514-.054t4.494-.016q4.5,0,9,0l9.015.007,9.033.01,9.052.009,11.122.006,11.149.006q5.584,0,11.177.012t11.205.024a5.026,5.026,0,0,0,1.363-.155,2.2,2.2,0,0,0,.952-.517,2.082,2.082,0,0,0,.546-.942,4.607,4.607,0,0,0,.145-1.43q-.037-1.175-.051-2.351t-.011-2.353q0-1.176.022-2.353t.047-2.352c.08-3.334.084-6.669.06-10s-.076-6.67-.108-10-.043-6.669.014-10,.183-6.668.425-10a4.02,4.02,0,0,0-.081-1.294,1.7,1.7,0,0,0-.463-.828,1.862,1.862,0,0,0-.834-.437,4.615,4.615,0,0,0-1.195-.121q-1.885.016-3.768.022t-3.765.006H88.757q-1.88,0-3.759,0c-1.84,0-7.337.081-14.651.184s-16.412.231-25.5.332c-9.071.1-18.123.176-25.351.173S6.874,146.4,5.073,146.2c-.342-.039-.782-.1-1.261-.188a12.171,12.171,0,0,1-1.5-.373,6.158,6.158,0,0,1-1.387-.624A2.532,2.532,0,0,1,0,144.07a2.023,2.023,0,0,1,.994-.942,9.86,9.86,0,0,1,1.721-.706c.6-.193,1.194-.342,1.632-.443s.726-.154.726-.154,4.2-.035,10.606-.086,15.029-.118,23.837-.181c8.826-.063,17.843-.123,25.009-.159s12.493-.048,13.889-.017c1.542.035,3.085.038,4.629.025s3.09-.044,4.637-.076,3.094-.068,4.642-.092,3.1-.036,4.646-.022a21.286,21.286,0,0,0,3.184-.13,2.354,2.354,0,0,0,2.355-2.536,20.813,20.813,0,0,0-.114-3.258c-.013-.151-.023-.3-.031-.454s-.013-.3-.017-.455-.006-.3-.008-.456,0-.3-.006-.456q-.046-3.414-.091-6.828t-.091-6.828q-.045-3.414-.09-6.828t-.088-6.828q-.026-2.043-.045-4.085t-.04-4.085q-.021-2.043-.048-4.085t-.07-4.084a10.606,10.606,0,0,0-.207-2.116,2.617,2.617,0,0,0-.618-1.269,2.289,2.289,0,0,0-1.187-.613,8.53,8.53,0,0,0-1.914-.149c-.813.007-1.625.006-2.438,0s-1.625-.01-2.437-.014-1.624-.008-2.435-.006-1.622.011-2.433.029c-2.971.067-5.939.135-8.905.188s-5.926.091-8.886.1-5.912-.022-8.864-.1-5.9-.2-8.842-.394c-.462-.03-.92-.064-1.367-.122a7.915,7.915,0,0,1-1.3-.268,4.773,4.773,0,0,1-1.19-.54,4.291,4.291,0,0,1-1.037-.938,2.005,2.005,0,0,1,.322-.512,1.37,1.37,0,0,1,.375-.3,1.666,1.666,0,0,1,.412-.152,4.015,4.015,0,0,1,.434-.072c1.989-.246,3.981-.44,5.976-.593s3.993-.267,5.993-.353,4-.145,6.006-.19,4.01-.075,6.017-.1q3.121-.046,6.246-.086t6.255-.073q3.13-.032,6.263-.055t6.272-.033a4.738,4.738,0,0,0,1.411-.188,2.159,2.159,0,0,0,.949-.57,2.013,2.013,0,0,0,.485-.977,4.206,4.206,0,0,0,.021-1.407,26.41,26.41,0,0,1-.116-5.163c.114-1.712.347-3.417.6-5.12s.526-3.407.72-5.116a34.227,34.227,0,0,0,.242-5.148,4.415,4.415,0,0,1,.125-1.258,3.383,3.383,0,0,1,.49-1.093,3.144,3.144,0,0,1,.879-.851,3.99,3.99,0,0,1,1.292-.532,4.482,4.482,0,0,1,.453,1.271,5.591,5.591,0,0,1,.09,1.235c-.012.407-.056.809-.1,1.209s-.1.8-.127,1.193q-.169,2.461-.334,4.922t-.326,4.922q-.161,2.461-.319,4.922t-.312,4.922a6.139,6.139,0,0,0,0,.931,2.39,2.39,0,0,0,.2.81,1.427,1.427,0,0,0,.524.6,2.163,2.163,0,0,0,.966.3,3.739,3.739,0,0,0,1.111-.034,2.071,2.071,0,0,0,1.483-1.092,3.782,3.782,0,0,0,.372-1.1,7.139,7.139,0,0,0,.1-.758c.021-.251.029-.5.027-.75s-.013-.5-.032-.749-.045-.5-.076-.756c-.085-.7-.162-1.411-.222-2.119s-.1-1.416-.121-2.125-.013-1.417.025-2.125a21.036,21.036,0,0,1,.218-2.118c.471-3.013.81-6.032,1.068-9.057s.433-6.053.574-9.084.249-6.063.372-9.1.261-6.063.463-9.091a4.43,4.43,0,0,0-.041-1.1,1.726,1.726,0,0,0-.325-.768,1.466,1.466,0,0,0-.657-.46,3.28,3.28,0,0,0-1.036-.176,2.809,2.809,0,0,0-1.089.145,1.442,1.442,0,0,0-.667.495,2,2,0,0,0-.332.8,5.06,5.06,0,0,0-.084,1.057q.008.95.009,1.9t-.008,1.9q-.009.95-.028,1.9t-.051,1.9c-.017.494-.054,1.75-.122,3.387s-.165,3.653-.3,5.669-.31,4.03-.532,5.662a10.26,10.26,0,0,1-.817,3.367c-.13-.076-.352.141-.616.477s-.57.793-.868,1.2a3.376,3.376,0,0,1-.822.883c-.234.127-.41.029-.48-.465a28.127,28.127,0,0,1-.088-4.54c.074-1.847.23-3.921.408-5.9s.379-3.869.541-5.343.286-2.535.311-2.861c.045-.581.091-1.162.136-1.744s.088-1.163.126-1.745.072-1.163.1-1.745.042-1.163.047-1.745a12.556,12.556,0,0,0-.141-2.361,2.549,2.549,0,0,0-.637-1.381,2.486,2.486,0,0,0-1.371-.631,12,12,0,0,0-2.344-.114,15.817,15.817,0,0,0-1.7.145c-.567.075-1.135.167-1.7.25s-1.129.156-1.688.193a9.242,9.242,0,0,1-1.661-.026c-1.326-.152-2.653-.233-3.979-.266s-2.651-.015-3.974.029-2.643.117-3.961.2-2.63.164-3.939.234c-2.028.108-4.054.171-6.078.209s-4.044.051-6.065.061-4.037.014-6.055.035-4.032.059-6.048.134q-4.781.177-9.558.25t-9.54.08q-4.763.006-9.52-.035t-9.5-.095a5.639,5.639,0,0,0-1.476.206c-.479.123-.95.282-1.423.418a6.835,6.835,0,0,1-1.44.281A3.753,3.753,0,0,1,8.856,30.6,16.429,16.429,0,0,0,6.7,30,19.242,19.242,0,0,0,4.5,29.683c-.742-.066-1.489-.093-2.239-.089s-1.5.04-2.256.1c0-.356,0-.712,0-1.073s.012-.726.028-1.1.039-.757.075-1.154.083-.807.146-1.236c1.708.13,3.4.2,5.094.242s3.37.041,5.044.03,3.342-.035,5.006-.051,3.323-.023,4.979,0q6.009.083,12.032.036t12.071-.158q6.048-.112,12.107-.257t12.14-.26q3.957-.075,7.919-.181t7.933-.211q3.971-.1,7.947-.19t7.96-.117a6.322,6.322,0,0,0,1.842-.239,2.45,2.45,0,0,0,1.146-.711,2.649,2.649,0,0,0,.566-1.226,7.265,7.265,0,0,0,.1-1.784c-.032-.73-.047-1.462-.05-2.194s0-1.465.017-2.2.03-1.467.047-2.2.031-1.467.038-2.2c.3-.006.6-.013.91-.016s.614,0,.929,0,.636.017.967.038.67.05,1.023.092q.015,1.238.006,2.443t-.046,2.389q-.037,1.184-.1,2.352t-.165,2.331c-.033.382-.071.752-.079,1.095a2.727,2.727,0,0,0,.107.927,1.215,1.215,0,0,0,.518.665,2.439,2.439,0,0,0,1.154.308,2.843,2.843,0,0,0,1.263-.155,1.439,1.439,0,0,0,.7-.6,2.607,2.607,0,0,0,.312-.948,9.423,9.423,0,0,0,.09-1.2,22.842,22.842,0,0,0-.093-2.472c-.067-.824-.154-1.647-.211-2.471a18.455,18.455,0,0,1-.03-2.471A10.235,10.235,0,0,1,111.9,11.1c.3-.006.606-.013.913-.015s.62,0,.942.008.654.026,1,.055.707.069,1.086.125c.045.664.087,1.316.119,1.956s.052,1.27.052,1.889-.019,1.23-.067,1.831a15.929,15.929,0,0,1-.239,1.781,16.492,16.492,0,0,0-.373,2.852,2.684,2.684,0,0,0,.426,1.693,2.354,2.354,0,0,0,1.487.8,13.346,13.346,0,0,0,2.811.161q5.268-.1,10.544-.222t10.569-.24q5.293-.121,10.594-.236t10.619-.21a10.154,10.154,0,0,0,1.42-.139c.471-.075.938-.17,1.4-.259s.928-.17,1.388-.217a6.714,6.714,0,0,1,1.375-.015c2.184.222,4.373.341,6.564.4s4.388.058,6.585.041,4.4-.051,6.6-.057,4.4.016,6.6.108c1.676.071,3.356.093,5.038.094s3.367-.021,5.052-.039,3.371-.031,5.055-.014,3.367.064,5.046.168c3.2.2,6.41.287,9.62.319s6.43.009,9.649-.018,6.445-.056,9.67-.034,6.455.094,9.684.272c1.742.1,3.489.139,5.238.151s3.5-.008,5.257-.038,3.512-.072,5.269-.1,3.516-.053,5.272-.044q3.531.019,7.066.071t7.076.105q3.542.053,7.087.088t7.1.019c1.621-.007,3.246-.052,4.874-.111s3.258-.132,4.885-.2,3.255-.12,4.876-.144,3.238-.016,4.846.046q3.172.122,6.345.18t6.352.082q3.178.025,6.36.033t6.369.033c.993.008,2.215.012,3.551.026s2.786.04,4.234.091,2.892.125,4.218.24a29.793,29.793,0,0,1,3.5.474,20.315,20.315,0,0,0,2.635.033c1.392-.029,3.215-.09,5.216-.156s4.18-.138,6.284-.19,4.134-.083,5.834-.068q6.441.057,12.895.108t12.932.094q6.478.043,12.968.076t13.005.054c1.67.005,3.341-.013,5.014-.042s3.346-.069,5.021-.106,3.35-.071,5.025-.089,3.352-.02,5.027.008c3.291.055,6.584.143,9.879.243s6.6.212,9.9.316,6.61.2,9.919.263,6.625.1,9.943.084q5.075-.024,10.151.045t10.164.185q5.088.116,10.182.254T535.1,26.3q4.985.111,9.98.21t10.005.146q5.01.048,10.027.025t10.047-.155c2.715-.071,5.432-.123,8.15-.171s5.442-.093,8.166-.151,5.453-.129,8.182-.228,5.463-.228,8.2-.4c2.249-.143,4.5-.235,6.758-.3s4.516-.087,6.777-.1,4.526-.012,6.791-.015,4.533-.011,6.8-.041v4.866c-1.071-.1-2.146-.156-3.222-.183s-2.153-.022-3.23.005-2.154.077-3.229.14-2.148.139-3.218.22c-1.844.139-3.685.213-5.524.248s-3.676.032-5.512.017-3.67-.041-5.5-.052-3.666-.007-5.5.04c-1.067.027-2.132.084-3.2.152s-2.126.147-3.19.217-2.127.132-3.194.166-2.136.04-3.209,0c-1.628-.062-3.258-.085-4.888-.084s-3.261.027-4.892.062-3.261.079-4.89.117-3.257.071-4.884.083q-2.9.022-5.794.05t-5.787.043q-2.891.015-5.779.006t-5.769-.062q-4.1-.076-8.191-.185t-8.175-.235q-4.083-.126-8.16-.262t-8.146-.264l-7.34-.232q-3.666-.117-7.328-.238t-7.316-.253q-3.654-.132-7.3-.277c-4.2-.168-8.389-.226-12.58-.227s-8.372.056-12.553.116-8.351.126-12.521.143-8.328-.014-12.485-.145c-3.142-.1-6.286-.142-9.428-.154s-6.28.006-9.418.029-6.27.05-9.4.057-6.255-.009-9.377-.071c-2.093-.042-5.208.023-8.818.133s-7.706.266-11.772.409-8.09.27-11.56.325-6.379.036-8.212-.115c-1.261-.206-3.8-.4-7.145-.579s-7.477-.334-11.933-.464-9.221-.232-13.832-.3-9.053-.1-12.869-.082q-3.438.013-6.874.067t-6.865.112q-3.429.058-6.854.1t-6.842.034c-1.612,0-3.228-.076-4.843-.169s-3.23-.209-4.841-.3-3.218-.161-4.819-.162a41.977,41.977,0,0,0-4.777.246,45,45,0,0,1-4.947.268c-1.638.006-3.268-.057-4.894-.139s-3.248-.185-4.871-.26-3.246-.123-4.876-.1q-4.91.083-9.813.068t-9.791-.08q-4.888-.066-9.769-.159t-9.748-.169c-1.832-.029-3.662-.082-5.492-.144s-3.656-.134-5.483-.2-3.652-.126-5.477-.165-3.648-.057-5.471-.039c-3.338.034-6.673.057-10.006.089s-6.659.072-9.984.14-6.644.163-9.963.305-6.63.329-9.941.582q-2.266.173-4.536.268t-4.539.109q-2.269.013-4.537-.056t-4.529-.227a13.778,13.778,0,0,0-1.686,0c-.563.03-1.126.079-1.691.117s-1.13.064-1.7.049a8.673,8.673,0,0,1-1.7-.2,2.043,2.043,0,0,0-.741-.039,1.342,1.342,0,0,0-.624.249,1.231,1.231,0,0,0-.411.565,2.125,2.125,0,0,0-.1.907c.122,1.592.148,3.182.112,4.769s-.132,3.173-.255,4.758-.272,3.168-.412,4.752-.272,3.168-.361,4.754c-.136,2.427-.305,4.852-.481,7.277s-.357,4.849-.515,7.275-.3,4.852-.381,7.282-.121,4.861-.077,7.3a6.17,6.17,0,0,0,.153,1.4,1.915,1.915,0,0,0,.445.873,1.638,1.638,0,0,0,.807.443,4.674,4.674,0,0,0,1.238.106q4.23-.089,8.462-.1t8.474.037q4.242.052,8.488.169t8.505.294c1.259.052,2.522.045,3.788.016s2.535-.078,3.805-.109,2.541-.044,3.811,0a31.828,31.828,0,0,1,3.806.343c.282.044.574.064.869.092a5.408,5.408,0,0,1,.884.143,2.682,2.682,0,0,1,.859.391,3.052,3.052,0,0,1,.793.837,14.63,14.63,0,0,1-2.343.838,18.846,18.846,0,0,1-2.362.463c-.788.106-1.574.17-2.355.213s-1.555.066-2.32.089q-4.749.143-9.493.245t-9.474.179q-4.73.077-9.454.136t-9.434.115c-1.952.023-3.461.02-4.607.123a4.094,4.094,0,0,0-2.422.763,2.8,2.8,0,0,0-.709,2.206,28.585,28.585,0,0,0,.537,4.451,19.982,19.982,0,0,1,.26,3.35c0,1.126-.06,2.26-.13,3.4s-.148,2.282-.175,3.426a24.922,24.922,0,0,0,.126,3.432c.287,2.512.468,5.029.577,7.549s.148,5.044.152,7.57-.028,5.052-.058,7.579-.06,5.053-.053,7.578a20.172,20.172,0,0,0,.1,2.423,2.372,2.372,0,0,0,.5,1.325,2.012,2.012,0,0,0,1.22.56,15.261,15.261,0,0,0,2.269.129q4.3.036,8.6.1t8.617.1q4.314.041,8.632.038t8.647-.092q1.763-.037,3.514,0t3.5.126q1.745.09,3.487.225t3.487.3a6.16,6.16,0,0,0,1.271,0,3.234,3.234,0,0,0,1.06-.3,2.712,2.712,0,0,0,.86-.665,4.146,4.146,0,0,0,.67-1.106c.11-.256.23-.508.358-.756s.265-.494.407-.736.29-.481.442-.718.306-.471.461-.7a17.614,17.614,0,0,1,1.335-1.832,2.034,2.034,0,0,1,1.073-.735,1.913,1.913,0,0,1,1.241.272,16.269,16.269,0,0,1,1.841,1.19,2.234,2.234,0,0,1,.178.142c.058.05.114.1.171.153s.115.1.175.144a1.138,1.138,0,0,0,.188.115c.763.361,1.336.632,1.758.883a2.211,2.211,0,0,1,.852.765,1.906,1.906,0,0,1,.185,1.072,18.09,18.09,0,0,1-.243,1.8,2.139,2.139,0,0,0,.877.684,2.627,2.627,0,0,0,.979.176c.337,0,.683-.031,1.029-.06a6.211,6.211,0,0,1,1.027-.025c2.111.173,4.22.214,6.33.183s4.221-.137,6.333-.257,4.226-.255,6.341-.346,4.235-.139,6.356-.085c1.539.039,3.079.068,4.619.1s3.081.067,4.622.12,3.081.123,4.62.224,3.077.234,4.613.413a6.8,6.8,0,0,0,1.5.019,5.084,5.084,0,0,0,1.33-.319,5.145,5.145,0,0,0,1.2-.668,7.011,7.011,0,0,0,1.1-1.028,14.319,14.319,0,0,1,3.3-2.826,13.351,13.351,0,0,1,3.656-1.541,18.922,18.922,0,0,1,4.021-.559,37.419,37.419,0,0,1,4.392.12,23.674,23.674,0,0,1,4.527.81,32.386,32.386,0,0,1,4.159,1.495c1.345.58,2.657,1.227,3.966,1.892s2.615,1.348,3.947,2a5.416,5.416,0,0,0,1.4.455,8.9,8.9,0,0,0,1.436.136c.483.011.968,0,1.453-.01s.97-.012,1.45.018c.35.022,1.224.028,2.417.035s2.7.017,4.328.045,3.36.075,5,.158,3.186.2,4.428.375a3.236,3.236,0,0,1,.777.2,2.353,2.353,0,0,1,.524.293,3.037,3.037,0,0,1,.355.315c.1.1.184.192.269.264-.019.375-.907.636-2.242.815s-3.117.277-4.924.327-3.638.051-5.075.038-2.477-.041-2.7-.051c-.4-.017-.832-.073-1.262-.117a7.555,7.555,0,0,0-1.261-.051,2.362,2.362,0,0,0-1.1.312,1.911,1.911,0,0,0-.77.971,3.375,3.375,0,0,0-.213,1.559,4.284,4.284,0,0,0,.428,1.484,4.723,4.723,0,0,0,.857,1.217,3.377,3.377,0,0,0,1.073.759,5.615,5.615,0,0,1,2.112,1.49,6.563,6.563,0,0,1,1.149,1.979,20.272,20.272,0,0,1,.663,2.2,18.24,18.24,0,0,0,.656,2.146c.2.5.377,1.012.544,1.535s.323,1.055.48,1.59.313,1.074.481,1.61.347,1.069.547,1.594a8.369,8.369,0,0,1,.493,2.1,13.591,13.591,0,0,1,.045,2.138c-.035.718-.107,1.439-.18,2.161s-.145,1.445-.18,2.166a51.207,51.207,0,0,1-.677,6.166,54.2,54.2,0,0,1-1.374,5.954,60.625,60.625,0,0,1-2,5.768q-1.145,2.842-2.557,5.61a8.884,8.884,0,0,0-.385.819,2.043,2.043,0,0,0-.142.68,4.568,4.568,0,0,0,.083.9c.063.378.161.855.29,1.489a5.21,5.21,0,0,0,1.247.345,8.275,8.275,0,0,0,1.276.085c.429,0,.859-.024,1.29-.049s.86-.05,1.286-.055q3.607-.044,7.217-.1t7.228-.116l7.24-.124q3.624-.063,7.251-.123.193,0,.387,0t.387,0q.194,0,.387.013t.386.025a35.65,35.65,0,0,0,3.984.192,3.915,3.915,0,0,0,2.252-.619,3.847,3.847,0,0,0,1.232-1.973,34.2,34.2,0,0,0,.926-3.869c.293-1.45.521-2.908.706-4.37s.328-2.93.452-4.4.229-2.941.339-4.413.225-2.942.367-4.409a2.45,2.45,0,0,0-.365-1.414,4.943,4.943,0,0,0-1.123-1.318,5.107,5.107,0,0,0-1.528-.9,2.879,2.879,0,0,0-1.581-.15c-1.565.347-3.137.631-4.713.876s-3.155.449-4.735.638-3.161.362-4.741.543-3.157.369-4.73.589a7.021,7.021,0,0,1-2.181-.011,6.033,6.033,0,0,1-1.8-.618,9.294,9.294,0,0,1-1.587-1.083c-.512-.423-1.018-.9-1.544-1.408a9.416,9.416,0,0,1-2.011-2.642,5.378,5.378,0,0,1-.555-2.566,7.093,7.093,0,0,1,.656-2.612,16.853,16.853,0,0,1,1.624-2.781,14.293,14.293,0,0,0,1.353-2.467c.378-.865.7-1.764,1.009-2.673s.609-1.828.942-2.733a21.95,21.95,0,0,1,1.151-2.649,3.528,3.528,0,0,0,.342-2,5.915,5.915,0,0,0-.669-2.138,6.783,6.783,0,0,0-1.4-1.831,4.673,4.673,0,0,0-1.845-1.082c-.144-.041-.287-.085-.431-.131s-.287-.1-.432-.145l-.44-.154c-.149-.052-.3-.1-.455-.157a2.093,2.093,0,0,1,.452-.839,1.7,1.7,0,0,1,.642-.434,2.7,2.7,0,0,1,.726-.162c.245-.024.486-.025.706-.025a11.84,11.84,0,0,0,1.821-.123,5.368,5.368,0,0,0,1.575-.479,3.714,3.714,0,0,0,1.255-1.012,5.006,5.006,0,0,0,.86-1.722,1.276,1.276,0,0,1,.207-.406,1.222,1.222,0,0,1,.34-.307,1.041,1.041,0,0,1,.439-.146,1.07,1.07,0,0,1,.5.077,3.184,3.184,0,0,0,1.556.262,2.307,2.307,0,0,0,1.156-.482,4.5,4.5,0,0,0,.889-.961c.266-.371.511-.777.755-1.175s.478-.8.707-1.207.452-.816.673-1.228.439-.824.659-1.236.441-.824.667-1.232a16.061,16.061,0,0,1,1.171-1.849,8.436,8.436,0,0,1,1.419-1.51,5.946,5.946,0,0,1,1.785-1.01,6.521,6.521,0,0,1,2.269-.352,2.78,2.78,0,0,1,.795,1.095,4,4,0,0,1,.254,1.25c.028.436.015.888.011,1.347a9.484,9.484,0,0,0,.065,1.384,5.048,5.048,0,0,1,1.515.322,2.292,2.292,0,0,1,.99.723,2.094,2.094,0,0,1,.4,1.161,4.561,4.561,0,0,1-.25,1.636c-.147.464-.286.93-.422,1.405s-.27.961-.407,1.462-.275,1.02-.421,1.563-.3,1.109-.465,1.706c3.456.138,8.447.189,14.3.206s12.578,0,19.482.008,14.013.032,20.611.135,12.711.282,17.619.591a3.952,3.952,0,0,1,1.311.186c.095.069-.074.145-.268.226s-.413.168-.42.258.2.185.855.281c-.4.615-2.323,1.025-5.005,1.3s-6.118.4-9.554.46-6.863.044-9.535.022-4.582-.05-4.981-.019c-3.563.274-7.124.445-10.682.54s-7.107.116-10.657.089-7.09-.1-10.631-.2-7.073-.211-10.6-.319a10.1,10.1,0,0,0-1.865.091,4.965,4.965,0,0,0-1.515.473,4.277,4.277,0,0,0-1.237.964,6.983,6.983,0,0,0-1.03,1.566c-.443.886-.882,1.767-1.3,2.654s-.817,1.777-1.178,2.683a28.58,28.58,0,0,0-.952,2.768,21.657,21.657,0,0,0-.621,2.909,4.928,4.928,0,0,0-.005,1.581,1.979,1.979,0,0,0,.489,1.029,1.739,1.739,0,0,0,.956.491,3.841,3.841,0,0,0,1.395-.034q1.445-.263,2.883-.573t2.872-.648q1.434-.338,2.865-.694t2.862-.711a4.01,4.01,0,0,0,.952-.364,3.415,3.415,0,0,0,.779-.577,3.524,3.524,0,0,0,.594-.787,4.368,4.368,0,0,0,.4-.993,9.7,9.7,0,0,1,1.134-2.634,8.663,8.663,0,0,1,1.724-1.993,10.327,10.327,0,0,1,2.229-1.436,14.894,14.894,0,0,1,2.649-.963c.13-.035.259-.065.385-.1a3.048,3.048,0,0,0,.362-.118,1.4,1.4,0,0,0,.32-.178,1.088,1.088,0,0,0,.26-.281,5.9,5.9,0,0,1,.538-.727,2.427,2.427,0,0,1,.622-.52,1.405,1.405,0,0,1,.74-.184,1.927,1.927,0,0,1,.889.281,1.33,1.33,0,0,1,.584.591,1.376,1.376,0,0,1,.1.7,5.334,5.334,0,0,1-.141.757,5.042,5.042,0,0,0-.138.76c-.166,2.22-.375,4.436-.609,6.65s-.493,4.424-.757,6.634-.535,4.419-.792,6.63-.5,4.423-.713,6.638a40.106,40.106,0,0,0-.118,5.066c.052,1.688.164,3.375.244,5.06s.125,3.37.045,5.052a25.227,25.227,0,0,1-.713,5.04,2.917,2.917,0,0,0-.052,1.47,1.675,1.675,0,0,0,.627.927,2.793,2.793,0,0,0,1.132.47,6.223,6.223,0,0,0,1.461.1c1.42-.055,2.839-.125,4.258-.2s2.84-.149,4.261-.214,2.845-.12,4.27-.151,2.854-.038,4.286-.008c2.467.052,4.939.046,7.412.023s4.951-.065,7.428-.084,4.956-.016,7.432.05,4.953.194,7.424.425a9.972,9.972,0,0,0,3.4-.218,8.163,8.163,0,0,0,2.641-1.2,11.86,11.86,0,0,0,2.129-1.922,29.664,29.664,0,0,0,1.867-2.379c.361-.5.763-.975,1.171-1.447s.822-.943,1.208-1.433a10.453,10.453,0,0,0,1.035-1.552,6.526,6.526,0,0,0,.653-1.8,1.117,1.117,0,0,1,.137-.337,1.93,1.93,0,0,1,.249-.333,1.9,1.9,0,0,1,.312-.273,1.073,1.073,0,0,1,.326-.158,10.459,10.459,0,0,0,3.238-1.575c1-.683,1.953-1.469,2.947-2.188a12.984,12.984,0,0,1,3.2-1.792,8.139,8.139,0,0,1,3.994-.388,4.2,4.2,0,0,0-.977-.82c-.334-.21-.663-.375-.944-.546a1.855,1.855,0,0,1-.655-.581,1.232,1.232,0,0,1-.112-.927,2.158,2.158,0,0,1,.433-.951,2.081,2.081,0,0,1,.733-.564,3.118,3.118,0,0,1,.9-.258,4.73,4.73,0,0,1,.925-.034,44.487,44.487,0,0,0,6.14-.126c2.041-.167,4.076-.426,6.112-.68s4.073-.5,6.116-.644a41.092,41.092,0,0,1,6.153-.018,9.213,9.213,0,0,1,1.453.244c.482.118.961.266,1.439.427s.955.335,1.433.5.956.334,1.436.476c.679.2,1.347.443,2.013.689s1.332.5,2.005.719a15.41,15.41,0,0,0,2.059.541,9.533,9.533,0,0,0,2.175.154,2.669,2.669,0,0,1,.862.1,3.83,3.83,0,0,1,.8.34,6.721,6.721,0,0,1,.748.489c.24.178.472.367.694.552q1.918,1.593,3.839,3.184t3.837,3.193q1.916,1.6,3.819,3.22t3.784,3.265a7.121,7.121,0,0,1,1.389,1.524,1.961,1.961,0,0,1,.334,1.339,2.693,2.693,0,0,1-.716,1.348,11.749,11.749,0,0,1-1.76,1.549,1.423,1.423,0,0,0,.225.694.921.921,0,0,0,.444.337,1.8,1.8,0,0,0,.583.1c.208.005.426-.009.639-.025,3.2-.237,6.4-.368,9.61-.434s6.42-.067,9.635-.046,6.435.064,9.656.087,6.448.027,9.675-.033q3.75-.069,7.5-.117t7.517-.1q3.762-.048,7.529-.108t7.541-.151c2.346-.057,4.7-.05,7.048-.014s4.708.1,7.064.163,4.714.117,7.072.133,4.716-.007,7.072-.1c2.042-.084,4.086-.13,6.131-.16s4.092-.045,6.139-.066,4.1-.05,6.146-.108,4.1-.146,6.152-.287c1.135-.078,2.272-.115,3.412-.127s2.282,0,3.425.022,2.288.052,3.432.076,2.289.041,3.433.035q1.887-.01,3.775-.036t3.778-.057q1.89-.031,3.781-.061t3.784-.047q2.222-.02,4.45-.032t4.48-.021l4.536-.014,4.617-.011c.068.332.12.663.158,1s.064.674.081,1.021.026.7.03,1.071,0,.75,0,1.149m-450.97-15.647q-1.089.292-2.182.572t-2.182.566q-1.09.286-2.175.585t-2.161.632c-1.333.411-2.64.953-3.945,1.5s-2.609,1.094-3.934,1.521a15.227,15.227,0,0,1-4.066.786,10.907,10.907,0,0,1-4.341-.7c-.46-.173-.922-.333-1.388-.474s-.936-.261-1.411-.354a11.064,11.064,0,0,0-1.444-.188,9.48,9.48,0,0,0-1.487.023.856.856,0,0,1-.45-.087,1.132,1.132,0,0,1-.374-.293,1,1,0,0,1-.212-.414.715.715,0,0,1,.038-.45,5.312,5.312,0,0,0,.469-1.955,4.964,4.964,0,0,0-.264-1.75,8.324,8.324,0,0,0-.768-1.625c-.315-.53-.675-1.052-1.044-1.58a1.507,1.507,0,0,1-.244-.6,2.34,2.34,0,0,1-.013-.68,4.037,4.037,0,0,1,.152-.7,6.477,6.477,0,0,1,.249-.673q.736-1.711,1.465-3.426t1.467-3.427q.738-1.712,1.491-3.417t1.538-3.4q1.121-2.417,2.271-4.82t2.308-4.805q1.158-2.4,2.313-4.806t2.285-4.823a6.2,6.2,0,0,0,.53-1.506,1.263,1.263,0,0,0-.135-.952,1.341,1.341,0,0,0-.845-.489,6.688,6.688,0,0,0-1.6-.119c-1.241.022-2.48.066-3.719.117s-2.475.108-3.713.157-2.476.088-3.717.1-2.484.006-3.731-.043c-2.51-.1-5.02-.155-7.53-.183s-5.017-.028-7.524-.016-5.011.037-7.515.059-5,.041-7.5.042a22.713,22.713,0,0,0-2.894.116,2.54,2.54,0,0,0-1.544.636,2.732,2.732,0,0,0-.626,1.594,25.36,25.36,0,0,0-.137,2.991c-.035,3.688-.042,7.377-.044,11.065s0,7.377-.01,11.065-.042,7.377-.11,11.065-.176,7.376-.344,11.063a18.96,18.96,0,0,0,.051,3.308,2.972,2.972,0,0,0,.768,1.813,3.01,3.01,0,0,0,1.832.7,19.863,19.863,0,0,0,3.244-.023c.123-.008.247-.012.37-.014s.247,0,.371,0,.248,0,.371.008l.371.011q3.288.087,6.579.139t6.588.064q3.3.011,6.6-.024t6.609-.123c3.187-.085,6.375-.1,9.565-.075s6.386.1,9.581.182,6.4.19,9.6.283,6.412.178,9.622.226a21.262,21.262,0,0,0,2.676-.065,2.434,2.434,0,0,0,1.448-.551,2.377,2.377,0,0,0,.605-1.416,20.3,20.3,0,0,0,.148-2.658c0-.279.017-.559.035-.838s.042-.558.068-.838.054-.558.082-.837.054-.558.077-.837c.128-1.572.291-2.888.337-3.938a4.023,4.023,0,0,0-.367-2.342c-.341-.508-.951-.74-1.981-.685a19.972,19.972,0,0,0-4.5,1.032m69.15-29.9c-.569-.133-1.137-.272-1.7-.413s-1.135-.283-1.7-.421-1.136-.271-1.707-.4-1.142-.238-1.716-.337a5.672,5.672,0,0,0-2.692.225,7.55,7.55,0,0,0-2.458,1.356,7.313,7.313,0,0,0-1.786,2.13,5.25,5.25,0,0,0-.676,2.549q.018,1.975-.113,3.925t-.4,3.881q-.265,1.931-.657,3.846t-.9,3.821c-.236.894-.442,1.794-.609,2.7s-.295,1.815-.375,2.73a24.314,24.314,0,0,0-.089,2.754,21.476,21.476,0,0,0,.249,2.773,15.485,15.485,0,0,0,.328,1.6,7.829,7.829,0,0,0,.557,1.511,3.907,3.907,0,0,0,.883,1.186,2.613,2.613,0,0,0,1.3.624,13.45,13.45,0,0,1,2.234.6c.718.254,1.413.552,2.1.859s1.373.622,2.066.912a18.3,18.3,0,0,0,2.122.758c.337.094.673.21,1.011.324s.678.227,1.021.315a5.322,5.322,0,0,0,1.045.173,3.528,3.528,0,0,0,1.083-.1,8.335,8.335,0,0,0,2.648-2.2,54.219,54.219,0,0,0,3.672-4.456,48.3,48.3,0,0,0,3.177-4.771c.808-1.426,1.279-2.58,1.161-3.136a31.033,31.033,0,0,1-.543-4.039c-.107-1.358-.167-2.724-.264-4.081a34.4,34.4,0,0,0-.485-4.03,16.884,16.884,0,0,0-1.206-3.886,20.2,20.2,0,0,1-.929-2.688,21.107,21.107,0,0,0-.948-2.744,6.85,6.85,0,0,0-1.657-2.349,6.764,6.764,0,0,0-3.056-1.5m176.673,42.588h26.079a17.552,17.552,0,0,0-1.41-1.431,13.684,13.684,0,0,0-1.476-1.16,12.173,12.173,0,0,0-1.577-.907,12.572,12.572,0,0,0-1.714-.669c-.861-.267-1.722-.54-2.577-.826s-1.705-.586-2.546-.907-1.672-.663-2.49-1.034-1.623-.77-2.41-1.207a14.094,14.094,0,0,0-2.37-1.045,13.734,13.734,0,0,0-2.424-.571,15.224,15.224,0,0,0-2.483-.143,18.781,18.781,0,0,0-2.549.238c-.734.117-1.47.218-2.206.3s-1.472.129-2.208.149a21.754,21.754,0,0,1-2.206-.05,18.01,18.01,0,0,1-2.2-.3,5.137,5.137,0,0,0-1.6-.069,5.888,5.888,0,0,0-.758.137,7.456,7.456,0,0,0-.74.226c-1.6.576-3.2,1.147-4.792,1.77s-3.162,1.3-4.705,2.077a34.122,34.122,0,0,0-4.519,2.719,29.2,29.2,0,0,0-4.232,3.7c2.551-.343,5.067-.538,7.565-.648s4.982-.134,7.466-.133,4.971.024,7.478.01,5.036-.066,7.6-.218M103.65,294.112c-.189,1.28-.306,2.564-.379,3.85s-.1,2.574-.108,3.863,0,2.579.006,3.868,0,2.578-.038,3.866q-.037,1.288-.061,2.576t-.039,2.577q-.016,1.288-.027,2.577t-.026,2.577a3.769,3.769,0,0,0,.1.959,2.033,2.033,0,0,0,.347.748,1.692,1.692,0,0,0,.634.5,2.681,2.681,0,0,0,.959.229,2.3,2.3,0,0,0,.9-.092,1.364,1.364,0,0,0,.6-.4,1.812,1.812,0,0,0,.351-.656,3.846,3.846,0,0,0,.153-.867c.015-.2.033-.4.052-.6s.039-.4.057-.6.035-.4.047-.6.02-.4.021-.6c.01-2.137.065-4.881.142-7.809s.177-6.038.277-8.906.2-5.493.275-7.449.129-3.245.136-3.439c.02-.531.074-1.24.145-2.045s.156-1.707.238-2.622.159-1.845.213-2.706.084-1.655.071-2.3c-.02-.983-.062-1.966-.107-2.948s-.092-1.966-.124-2.949-.047-1.967-.026-2.951.075-1.97.185-2.956a4.5,4.5,0,0,0,0-1.137,2.425,2.425,0,0,0-.338-.963,1.859,1.859,0,0,0-.763-.676,3.047,3.047,0,0,0-1.28-.276A2.351,2.351,0,0,0,105,266a1.186,1.186,0,0,0-.539.683,3.161,3.161,0,0,0-.122.951c0,.342.014.7,0,1.043q-.088,3.107-.175,6.223t-.173,6.278q-.086,3.161-.171,6.386t-.169,6.55M110.029,108.9a19.71,19.71,0,0,0,.495-5.216,46.459,46.459,0,0,0-.5-5.173c-.241-1.721-.51-3.441-.669-5.167a25.211,25.211,0,0,1-.008-5.2,2.056,2.056,0,0,0-.093-.96,1.486,1.486,0,0,0-.475-.652,2.088,2.088,0,0,0-.767-.369,3.646,3.646,0,0,0-.967-.112,2.734,2.734,0,0,0-.972.167,1.684,1.684,0,0,0-.671.462,1.84,1.84,0,0,0-.379.729,3.171,3.171,0,0,0-.1.968c.025.631.058,1.261.1,1.892s.079,1.26.12,1.89.082,1.26.118,1.89.067,1.261.089,1.892q.183,5.266.352,10.533t.286,10.536q.117,5.269.163,10.54t-.017,10.545c0,.335-.031.69-.035,1.035a3.271,3.271,0,0,0,.106.973,1.286,1.286,0,0,0,.525.73,2.257,2.257,0,0,0,1.222.3,2.439,2.439,0,0,0,1.316-.269,1.309,1.309,0,0,0,.573-.745,3.586,3.586,0,0,0,.139-1.03c.008-.37,0-.755.014-1.125.116-2.375.173-4.749.2-7.132s.008-4.775-.019-7.185-.067-4.838-.1-7.293-.052-4.938-.041-7.457m-4,58.295q0,.912,0,1.823t-.006,1.823q0,.912,0,1.823t0,1.823q.01,2.919.007,5.838t-.041,5.838q-.038,2.918-.123,5.836t-.239,5.834c-.017.325-.042.663-.041.989a3,3,0,0,0,.123.917,1.315,1.315,0,0,0,.5.692,2.04,2.04,0,0,0,1.087.312,2.739,2.739,0,0,0,1.122-.154,1.928,1.928,0,0,0,.774-.541,2.663,2.663,0,0,0,.483-.854,5.131,5.131,0,0,0,.249-1.093c.013-.1.028-.2.042-.3s.029-.2.039-.305.018-.2.02-.3a2.034,2.034,0,0,0-.015-.3c-.115-.879-.19-1.756-.233-2.632s-.055-1.753-.044-2.629.046-1.754.1-2.633.114-1.759.185-2.643c.183-2.271.274-4.544.307-6.817s.007-4.547-.044-6.821-.127-4.548-.194-6.822-.126-4.548-.143-6.821a26.352,26.352,0,0,1,.144-2.717c.087-.9.2-1.807.282-2.711a25.088,25.088,0,0,0,.131-2.714,13.089,13.089,0,0,0-.307-2.726c-.08-.353-.16-.687-.262-.988a2.763,2.763,0,0,0-.394-.792,1.541,1.541,0,0,0-.66-.51,2.449,2.449,0,0,0-1.059-.144,2.094,2.094,0,0,0-1.122.322,1.261,1.261,0,0,0-.481.7,3.205,3.205,0,0,0-.1.91c0,.32.021.649.018.957-.015,1.494-.027,2.988-.036,4.491s-.017,3.016-.023,4.548-.011,3.083-.016,4.662-.01,3.188-.017,4.833m-3.215,164.186c.014.177.033.353.054.53s.042.354.06.531.034.353.043.53a5.222,5.222,0,0,1,0,.527c-.158,3.077-.251,6.155-.3,9.235s-.056,6.159-.041,9.239.049,6.161.081,9.242.062,6.162.068,9.242c0,.806-.011,1.612-.028,2.419s-.039,1.612-.058,2.418-.034,1.612-.038,2.417,0,1.611.032,2.416a9.459,9.459,0,0,0,.089,1.106,3.225,3.225,0,0,0,.314,1.025,1.662,1.662,0,0,0,.722.724,2.446,2.446,0,0,0,1.314.2,2.311,2.311,0,0,0,1.251-.4,1.415,1.415,0,0,0,.512-.816,3.672,3.672,0,0,0,.067-1.059c-.019-.374-.064-.759-.085-1.127s-.058-.756-.1-1.134-.09-.755-.136-1.133-.089-.755-.121-1.132-.053-.754-.055-1.131q-.015-3.3-.022-6.592t-.008-6.592q0-3.3,0-6.592t.012-6.591c0-1.567,0-3.135,0-4.7s0-3.135.029-4.7.072-3.132.154-4.7.2-3.127.372-4.688a7.673,7.673,0,0,0,.056-1.081,2.742,2.742,0,0,0-.185-.965,1.505,1.505,0,0,0-.6-.712,2.419,2.419,0,0,0-1.176-.322,2.807,2.807,0,0,0-1.15.144,1.6,1.6,0,0,0-.728.539,2.182,2.182,0,0,0-.372.87,4.75,4.75,0,0,0-.081,1.137c0,.1,0,.2.005.31s0,.223,0,.353,0,.274.011.439.016.352.031.568m338.1-88.514a4.826,4.826,0,0,0-1.362,1.294,7.807,7.807,0,0,0-.852,1.6c-.231.563-.426,1.146-.633,1.718a12.414,12.414,0,0,1-.706,1.655A16.608,16.608,0,0,0,436.5,251a9.064,9.064,0,0,0-.557,2.083,3.945,3.945,0,0,0,.179,1.939,2.7,2.7,0,0,0,1.342,1.435,3.082,3.082,0,0,0,1.874.3,5.311,5.311,0,0,0,1.909-.711,11.015,11.015,0,0,0,1.811-1.355,18.814,18.814,0,0,0,1.582-1.629,10.31,10.31,0,0,0,2.079-3.417,4.527,4.527,0,0,0,.057-2.97,4.7,4.7,0,0,0-1.942-2.325,11.157,11.157,0,0,0-3.914-1.485M285.577,253a6.466,6.466,0,0,0-.574,1.784,4.945,4.945,0,0,0,.016,1.687,5.06,5.06,0,0,0,.584,1.576,6.766,6.766,0,0,0,1.129,1.452,3.329,3.329,0,0,0,.915.653,2.949,2.949,0,0,0,1.009.277,3.1,3.1,0,0,0,1.045-.088,3.685,3.685,0,0,0,1.024-.441,14.643,14.643,0,0,0,1.525-1.062,7.578,7.578,0,0,0,1.259-1.267,5.157,5.157,0,0,0,.829-1.561,5.361,5.361,0,0,0,.236-1.946,5.524,5.524,0,0,0-.311-1.571,5.634,5.634,0,0,0-.7-1.343,6.6,6.6,0,0,0-1-1.116,8.058,8.058,0,0,0-1.2-.891,1.832,1.832,0,0,0-1.141-.3,2.245,2.245,0,0,0-1.009.385,6.933,6.933,0,0,0-.919.748c-.3.275-.584.557-.87.795a4.89,4.89,0,0,0-.444.42c-.143.153-.284.319-.43.5s-.295.38-.455.6-.331.452-.52.708m94.168-9.025a10.358,10.358,0,0,0-2.621,1.834,11.484,11.484,0,0,0-1.865,2.363,16.98,16.98,0,0,0-1.3,2.722c-.362.948-.663,1.928-.935,2.911a2.36,2.36,0,0,0,.084,1.585,2.536,2.536,0,0,0,.987,1.129,3.3,3.3,0,0,0,1.539.494,3.585,3.585,0,0,0,1.738-.32,7.292,7.292,0,0,0,2.723-2.1,7.027,7.027,0,0,0,1.375-3.027,8.94,8.94,0,0,0-.081-3.642,12.816,12.816,0,0,0-1.643-3.947m-218.808,1c-.329.371-.672.731-1.009,1.1s-.669.732-.973,1.12a7.877,7.877,0,0,0-.81,1.237,5.68,5.68,0,0,0-.521,1.446,3.778,3.778,0,0,0-.052,1.455,2,2,0,0,0,.489,1.026,1.714,1.714,0,0,0,.957.506,2.954,2.954,0,0,0,1.352-.1,3.1,3.1,0,0,0,1.133-.588,3.173,3.173,0,0,0,.738-.9,4.843,4.843,0,0,0,.437-1.1,8.8,8.8,0,0,0,.228-1.178c.051-.39.13-.808.176-1.223a3.77,3.77,0,0,0-.024-1.2,1.724,1.724,0,0,0-.592-1,3.116,3.116,0,0,0-1.528-.6m106.183,6.871c-.123.5-.23,1-.31,1.506a12.116,12.116,0,0,0-.152,1.507,9.064,9.064,0,0,0,.07,1.512,7.986,7.986,0,0,0,.355,1.521,4.941,4.941,0,0,0,.805,1.549,2.337,2.337,0,0,0,1.108.783,2.645,2.645,0,0,0,1.419.014,6.2,6.2,0,0,0,1.738-.758q-.38-.96-.756-1.921t-.755-1.922q-.379-.96-.765-1.917t-.786-1.908c-.1-.227-.2-.484-.315-.7a1.172,1.172,0,0,0-.4-.49.442.442,0,0,0-.537.116,3.571,3.571,0,0,0-.718,1.114m-88.774-3.683a2.058,2.058,0,0,0-1.12.309,1.53,1.53,0,0,0-.547.709,4.8,4.8,0,0,0-.246.93,8.655,8.655,0,0,1-.217.972,5.607,5.607,0,0,0,.918.512,2.971,2.971,0,0,0,.888.241,1.724,1.724,0,0,0,.816-.109,1.749,1.749,0,0,0,.7-.539,1.391,1.391,0,0,0,.334-.774,1.43,1.43,0,0,0-.173-.762,3.35,3.35,0,0,0-.553-.751A8.919,8.919,0,0,0,178.347,248.17Z"/>
  <path id="Path_162" data-name="Path 162" d="M253.29,17.78q-9.478.05-18.93.047t-18.855-.034q-9.4-.031-18.78-.076t-18.705-.081q-4.511-.017-9.017,0t-9,.038q-4.495.024-8.983.047t-8.966.025q-5.059,0-10.111.022t-10.09.019q-5.037,0-10.066-.045t-10.04-.168c-1.7-.042-3.4-.011-5.1.036s-3.4.109-5.1.129-3.4,0-5.09-.127a33.842,33.842,0,0,1-5.065-.732,3.217,3.217,0,0,0-1.421-.05,1.4,1.4,0,0,0-.865.549,1.663,1.663,0,0,0-.261,1.048,4.007,4.007,0,0,0,.391,1.448c.372.818.806,1.608,1.232,2.4s.844,1.58,1.185,2.4a10,10,0,0,1,.722,2.569,8.036,8.036,0,0,1-.157,2.908,9.974,9.974,0,0,1-.544,1.744,2.9,2.9,0,0,1-.779,1.1,2.058,2.058,0,0,1-1.181.446,5.255,5.255,0,0,1-1.749-.224,5.173,5.173,0,0,1-1.211-.5,6.424,6.424,0,0,1-1.019-.726,11.169,11.169,0,0,1-.895-.874c-.285-.307-.561-.625-.838-.942q-.44-.5-.869-1.012t-.856-1.028q-.426-.517-.853-1.039t-.861-1.044a7.676,7.676,0,0,0-2.027,1.043,14.051,14.051,0,0,0-1.658,1.416c-.518.5-1.015,1.023-1.533,1.513a11.292,11.292,0,0,1-1.651,1.332c-.426.273-.841.543-1.236.749a2.766,2.766,0,0,1-1.112.361,1.134,1.134,0,0,1-.93-.4,3.515,3.515,0,0,1-.69-1.524,2.006,2.006,0,0,0-.682-1.019c-.32-.28-.7-.518-1.05-.77a2.93,2.93,0,0,1-.86-.851,1.553,1.553,0,0,1-.114-1.263,5.106,5.106,0,0,1,.806-1.628,9.282,9.282,0,0,1,1.218-1.332c.447-.415.922-.81,1.382-1.216a13.027,13.027,0,0,0,1.3-1.281,4.263,4.263,0,0,1,.759-.645,7.278,7.278,0,0,0,.806-.628,1.511,1.511,0,0,0,.475-.788A1.688,1.688,0,0,0,63.533,18a2.266,2.266,0,0,0-.783-.9,2.139,2.139,0,0,0-.964-.3,6.722,6.722,0,0,0-1.1.017c-.387.029-.79.065-1.2.064-1.319,0-2.643.028-3.968.061S52.862,17,51.54,17s-2.641-.042-3.953-.155a28.322,28.322,0,0,1-3.909-.6c-.612-.14-1.216-.266-1.815-.364a15.825,15.825,0,0,0-1.787-.2,10.971,10.971,0,0,0-1.776.051,9.33,9.33,0,0,0-1.784.38,11.557,11.557,0,0,1-2.164.448c-.729.086-1.465.123-2.2.153s-1.477.052-2.214.109a14.767,14.767,0,0,0-2.2.317,7.555,7.555,0,0,0-.125,1.487,6.518,6.518,0,0,0,.172,1.375,6.987,6.987,0,0,0,.447,1.3,9.181,9.181,0,0,0,.7,1.254,9.271,9.271,0,0,1,1.125,2.21,4.144,4.144,0,0,1,.19,1.926,4.448,4.448,0,0,1-.752,1.819A10.711,10.711,0,0,1,27.8,30.4c-.075.069-.15.142-.223.218s-.142.157-.207.24a2.585,2.585,0,0,0-.178.258,1.888,1.888,0,0,0-.136.272,3.976,3.976,0,0,1-.921,1.5,1.162,1.162,0,0,1-.984.332,1.973,1.973,0,0,1-.984-.538,6.07,6.07,0,0,1-.921-1.111,16.516,16.516,0,0,0-1.674-2.089c-.6-.644-1.24-1.244-1.889-1.824s-1.31-1.138-1.959-1.7-1.285-1.125-1.885-1.715a3.52,3.52,0,0,0-.879.284,2.858,2.858,0,0,0-.658.438,2.944,2.944,0,0,0-.475.543,3.694,3.694,0,0,0-.329.6A7.825,7.825,0,0,1,11.8,28.588,9.443,9.443,0,0,1,9.539,30.2,20.649,20.649,0,0,1,6.95,31.3c-.891.322-1.8.619-2.677.952a1.584,1.584,0,0,1-1.134.03,1.811,1.811,0,0,1-.857-.715A3.35,3.35,0,0,1,1.8,30.3a5.1,5.1,0,0,1-.021-1.616,16.609,16.609,0,0,1,.439-2.15,12.177,12.177,0,0,1,.736-1.985,10.407,10.407,0,0,1,1.1-1.81A10.7,10.7,0,0,1,5.58,21.115a7.316,7.316,0,0,0,.745-.755c.232-.269.449-.551.658-.837s.411-.575.61-.858.4-.559.6-.818A3.037,3.037,0,0,0,6.418,16.39a6.139,6.139,0,0,0-2.142-.143,12.185,12.185,0,0,1-2.184.033,2.945,2.945,0,0,1-1.9-.93,2.46,2.46,0,0,1,1.27-.836,6.62,6.62,0,0,1,1.447-.193,5.974,5.974,0,0,0,1.437-.207,2.4,2.4,0,0,0,1.238-.879,5.407,5.407,0,0,0-.605-1.082,10,10,0,0,0-.8-.971c-.287-.313-.589-.618-.888-.927s-.6-.623-.873-.952a10.571,10.571,0,0,0-.947-.933,8.388,8.388,0,0,1-.943-.964A2.274,2.274,0,0,1,.014,6.295,2.132,2.132,0,0,1,.358,4.92a2.207,2.207,0,0,1,1.007-.945A2.614,2.614,0,0,1,2.6,3.793a8.55,8.55,0,0,1,1.333.221c.448.1.893.209,1.314.265A10.282,10.282,0,0,1,7.071,2.508a3.062,3.062,0,0,1,1.666-.628,3.255,3.255,0,0,1,1.748.512A11.413,11.413,0,0,1,12.557,4.04c.316.3.626.609.937.924s.624.639.944.973.647.679.988,1.036.7.729,1.07,1.115a17.82,17.82,0,0,1,1.539-1.925,15.122,15.122,0,0,1,1.7-1.586,14.247,14.247,0,0,1,1.883-1.266A15.044,15.044,0,0,1,23.7,2.346a3.434,3.434,0,0,1,1.71.062,14.451,14.451,0,0,1,2.379.769A13.415,13.415,0,0,1,29.968,4.3a2.609,2.609,0,0,1,1.111,1.123,1.491,1.491,0,0,1,.044.675,1.453,1.453,0,0,1-.228.554,2.532,2.532,0,0,1-.407.462c-.155.142-.325.273-.493.4a6.7,6.7,0,0,0-.84.748,7.57,7.57,0,0,0-.693.848,9.752,9.752,0,0,0-.577.928c-.177.321-.339.652-.493.99a4.428,4.428,0,0,1-.354.6,4.24,4.24,0,0,0-.353.6,1.13,1.13,0,0,0-.108.629,1.244,1.244,0,0,0,.379.685,2.012,2.012,0,0,0,.595.425,2.163,2.163,0,0,0,.664.184,3.138,3.138,0,0,0,.7,0,5.181,5.181,0,0,0,.715-.134,12.3,12.3,0,0,1,2.284-.346,20,20,0,0,1,2.278,0c.759.039,1.518.107,2.278.173s1.521.129,2.285.16c1.42.058,2.84.017,4.261-.066s2.842-.209,4.265-.322,2.848-.212,4.275-.243a31.678,31.678,0,0,1,4.29.173c.255.029.515.054.776.065a5.958,5.958,0,0,0,.781-.013,3.842,3.842,0,0,0,.759-.14,2.911,2.911,0,0,0,.711-.316,2.105,2.105,0,0,0,.243-1.283,7.415,7.415,0,0,0-.292-1.284A4.419,4.419,0,0,1,58.6,9.357a1.46,1.46,0,0,1,.451-1.074c.3-.3.661-.628,1.045-.956s.792-.652,1.189-.938a9.187,9.187,0,0,1,1.121-.709,1.906,1.906,0,0,1,.842-.267,27.1,27.1,0,0,1,2.928.235,9.718,9.718,0,0,1,2.714.766,5.634,5.634,0,0,1,2.156,1.726A7.117,7.117,0,0,1,72.3,11.256,8.448,8.448,0,0,0,74,10.2,14.579,14.579,0,0,0,75.344,8.98c.412-.416.8-.83,1.2-1.21a7.583,7.583,0,0,1,1.29-1.008c.416-.25.833-.581,1.254-.889a5.357,5.357,0,0,1,1.276-.747,1.655,1.655,0,0,1,1.314.026,3.405,3.405,0,0,1,1.367,1.43.648.648,0,0,0,.363.312.811.811,0,0,0,.437-.007,3.374,3.374,0,0,0,.47-.169,4.073,4.073,0,0,1,.462-.173,5.4,5.4,0,0,1,.873-.173,3.308,3.308,0,0,1,.851.014,2.691,2.691,0,0,1,.824.266,3.214,3.214,0,0,1,.792.584A2.9,2.9,0,0,1,87.5,8.847,9,9,0,0,1,86.247,10.1a10.124,10.124,0,0,0-1.332,1.335,4.316,4.316,0,0,0-.864,1.86l41.646.04q20.94.021,42.005.045,21.132.025,42.413.055,21.348.031,42.869.069c.077.341.134.679.177,1.02s.072.682.091,1.032.029.706.033,1.075S253.29,17.381,253.29,17.78Z" transform="translate(381.692 128.139)"/>
  <path id="Path_163" data-name="Path 163" d="M275.523,11.49c-2.432.081-4.86.109-7.286.1s-4.846-.063-7.265-.141-4.835-.182-7.25-.3-4.827-.246-7.24-.376c-1.987-.106-3.979-.183-5.973-.242s-3.989-.1-5.984-.14-3.989-.075-5.98-.121-3.977-.1-5.958-.182c-2.453-.1-4.9-.169-7.355-.224s-4.9-.094-7.344-.132S203,9.66,200.557,9.614s-4.88-.1-7.318-.186q-2.156-.072-4.311-.123t-4.309-.086q-2.154-.035-4.306-.059t-4.3-.044c-2.38-.022-4.761-.016-7.142,0s-4.757.031-7.133.036-4.747,0-7.116-.048-4.731-.122-7.09-.255c-2.634-.149-5.267-.251-7.9-.321s-5.26-.11-7.887-.132-5.25-.029-7.872-.034-5.238-.009-7.854-.027q-4.315-.029-8.628-.017t-8.617.026q-4.3.014-8.6.009t-8.58-.068c-3.838-.056-7.674-.068-11.506-.064s-7.656.026-11.479.035-7.637.007-11.45-.036S39.542,8.09,35.74,7.94c-1.809-.072-3.62-.1-5.431-.111s-3.621.008-5.432.03-3.62.051-5.428.069-3.615.026-5.42.006q-1.37-.015-2.74-.075t-2.736-.15q-1.367-.09-2.732-.2T3.094,7.279c-.268-.023-.548-.041-.828-.073a5.044,5.044,0,0,1-.834-.156A2.719,2.719,0,0,1,.655,6.7,2.393,2.393,0,0,1,0,6.031a2.158,2.158,0,0,1,.528-1,1.907,1.907,0,0,1,.807-.475,4.626,4.626,0,0,1,.956-.171c.329-.031.661-.049.975-.09,2.291-.3,4.586-.516,6.882-.661s4.6-.222,6.9-.25,4.607-.01,6.912.036,4.612.119,6.917.2c1.5.051,2.995.068,4.493.069s3-.016,4.5-.031,3-.029,4.5-.024,3,.029,4.5.09c3.818.155,7.64.228,11.466.256s7.663.008,11.5-.023,7.683-.073,11.53-.092,7.7-.014,11.556.049q3.509.058,7.023.076t7.035.023q3.521,0,7.046.009t7.056.034q7.666.065,15.348.134t15.4.142q7.716.074,15.449.152t15.5.164q6.385.07,12.777.223t12.8.369q6.413.216,12.835.485t12.867.571q4.831.227,9.679.362t9.736.231q4.888.1,9.818.176t9.925.2a9.995,9.995,0,0,1,.18.995c.044.334.073.672.092,1.019s.029.7.034,1.071S275.523,11.091,275.523,11.49Z" transform="translate(359.458 77.108)"/>
  <path id="Path_164" data-name="Path 164" d="M0,1.737c1.688-.249,3.7-.441,5.9-.581S10.5.93,12.949.893s4.95-.027,7.367.03,4.753.158,6.866.3c.465.031,1.708.022,3.473-.009s4.053-.081,6.607-.133,5.375-.1,8.2-.134S51.135.9,53.722.934c3.531.04,6.868.123,9.894.23s5.746.239,8.036.377,4.155.285,5.474.42a9.12,9.12,0,0,1,2.209.357c-.571.557-3.9,1.017-8.614,1.394s-10.794.67-16.888.9-12.179.383-16.923.487-8.132.157-8.828.172q-1.191.025-2.381.03t-2.38,0q-1.19,0-2.379,0t-2.377.014q-2.275.028-4.551.061T9.45,5.448q-2.289.04-4.6.086t-4.65.1c-.05-.294-.088-.592-.116-.9S.038,4.122.025,3.8.006,3.152,0,2.809,0,2.11,0,1.737Z" transform="translate(0 81.097)"/>
  <path id="Path_165" data-name="Path 165" d="M148.827,7.1c-6.009-.113-11.986-.049-17.938.078s-11.863.317-17.764.457-11.768.23-17.63.158-11.7-.306-17.536-.813c-.12-.01-2.042-.02-5.2-.031L60.13,6.9c-5.065-.017-10.8-.039-16.65-.067s-11.794-.063-17.3-.107c-3.807-.03-7.336-.117-10.49-.239s-5.931-.279-8.24-.45S3.3,5.685,2.027,5.509.046,5.163,0,5.023a12.154,12.154,0,0,1,2.657-.513c1.457-.189,3.45-.391,5.871-.585s5.275-.38,8.449-.54,6.677-.292,10.392-.377c5.952-.137,12.4-.214,18.755-.251s12.637-.034,18.227-.009,10.506.07,14.135.117,5.977.1,6.442.126c1.62.105,3.239.15,4.857.16s3.237-.017,4.856-.054,3.238-.085,4.857-.119,3.24-.054,4.862-.036q3.729.042,7.462.04t7.476-.013q3.742-.01,7.489-.01t7.5.048q4.6.058,9.207.055t9.228-.026q4.621-.023,9.247-.045t9.265,0c.545,0,3.533-.031,8.043-.068s10.557-.079,17.2-.093,13.922,0,20.865.069,13.583.2,18.949.421a81.041,81.041,0,0,1,8.464.69,12.733,12.733,0,0,1,3.64.944,2.1,2.1,0,0,1,1.031.939,1.14,1.14,0,0,0,.645.675c-.8.4-5.441.644-12,.792s-15.017.2-23.47.2c-8.438,0-16.866-.039-23.387-.073s-11.127-.059-11.958-.024c-1.962.084-4.34.1-6.93.066s-5.388-.1-8.2-.172-5.62-.156-8.24-.21S150.854,7.062,148.827,7.1Z" transform="translate(136.665 77.995)"/>
  <path id="Path_166" data-name="Path 166" d="M6.484,6.225a3.069,3.069,0,0,0,.354,1.059,1.762,1.762,0,0,0,.6.623,2.265,2.265,0,0,0,.811.29,5.16,5.16,0,0,0,.984.059c.408-.009.818-.021,1.236-.023s.841.006,1.277.039a10.474,10.474,0,0,1,1.347.187,9.756,9.756,0,0,1,1.447.419,5.02,5.02,0,0,1-1.37,1.68,4.334,4.334,0,0,1-1.634.765,7.586,7.586,0,0,1-1.761.186c-.593,0-1.184-.035-1.751-.057-1.076-.042-1.883-.083-2.487-.052a1.973,1.973,0,0,0-1.27.373,1.8,1.8,0,0,0-.452,1.214c-.059.591-.048,1.391-.034,2.471.007.512,0,.956-.038,1.358a6.6,6.6,0,0,1-.185,1.115,6.22,6.22,0,0,1-.378,1.043,11.831,11.831,0,0,1-.617,1.143,2.1,2.1,0,0,1-.959-.359,1.981,1.981,0,0,1-.577-.663A3.751,3.751,0,0,1,.7,18.258c-.08-.291-.139-.589-.2-.87a23.122,23.122,0,0,1-.443-3.171,26.193,26.193,0,0,1-.028-3.161C.087,10,.2,8.955.356,7.908s.362-2.093.6-3.135A2.742,2.742,0,0,1,1.5,3.664a2.954,2.954,0,0,1,.439-.44,3.268,3.268,0,0,1,.534-.352A25.14,25.14,0,0,1,5.327,1.578a23.552,23.552,0,0,1,2.954-.9A23.2,23.2,0,0,1,11.334.169a24.1,24.1,0,0,1,3.15-.1,3.953,3.953,0,0,1,.654.069,1.627,1.627,0,0,1,.548.206.951.951,0,0,1,.365.413,1.427,1.427,0,0,1,.1.689,1.585,1.585,0,0,1-.173.656,1.236,1.236,0,0,1-.387.435,1.582,1.582,0,0,1-.545.236,2.442,2.442,0,0,1-.648.057,10.231,10.231,0,0,0-1.814.1,14.853,14.853,0,0,0-1.751.365c-.576.153-1.145.333-1.712.519s-1.132.38-1.7.564c-.167.054-.364.109-.552.184a1.468,1.468,0,0,0-.5.3.68.68,0,0,0-.209.519A1.717,1.717,0,0,0,6.484,6.225Z" transform="translate(351.622 238.763)"/>
</svg>
