<svg xmlns="http://www.w3.org/2000/svg" width="31.557" height="31.559" viewBox="0 0 31.557 31.559">
  <path id="pen" d="M33.557,10.268a1.578,1.578,0,0,0-.458-1.12l-6.69-6.69a1.6,1.6,0,0,0-2.241,0L19.7,6.923h0L2.458,24.169A1.578,1.578,0,0,0,2,25.289v6.69a1.578,1.578,0,0,0,1.578,1.578h6.69a1.578,1.578,0,0,0,1.2-.458L28.618,15.854h0L33.1,11.467a1.878,1.878,0,0,0,.347-.521,1.578,1.578,0,0,0,0-.379,1.1,1.1,0,0,0,0-.221ZM9.621,30.4H5.156V25.936L20.824,10.268l4.465,4.465ZM27.514,12.509,23.049,8.043l2.241-2.225,4.45,4.45Z" transform="translate(-2 -2)"/>
</svg>
