<svg id="Group_205" data-name="Group 205" xmlns="http://www.w3.org/2000/svg" width="30" height="30" viewBox="0 0 30 30">
  <path id="Rectangle_56" data-name="Rectangle 56" d="M15,3A12,12,0,0,0,6.515,23.485,12,12,0,1,0,23.485,6.515,11.921,11.921,0,0,0,15,3m0-3A15,15,0,1,1,0,15,15,15,0,0,1,15,0Z" transform="translate(0 0)" fill="#fff"/>
  <path id="Path_131" data-name="Path 131" d="M5.643,17.648a1.732,1.732,0,0,1-1.1-.4,1.764,1.764,0,0,1-.254-2.464l3.354-4.14-5.659.648A1.761,1.761,0,0,1,.409,8.462L6.488.692A1.721,1.721,0,0,1,8.923.415a1.764,1.764,0,0,1,.3,2.459L5.727,7.337l5.761-.66a1.76,1.76,0,0,1,1.557,2.853l-6.06,7.481A1.71,1.71,0,0,1,5.643,17.648Z" transform="translate(12.067 4.28) rotate(22)" fill="#fff"/>
</svg>
