<svg xmlns="http://www.w3.org/2000/svg" width="105.578" height="100" viewBox="0 0 105.578 100">
  <path id="Path_1" data-name="Path 1" d="M-23973.934-1416.9a4.81,4.81,0,0,1-2.7-.826,4.832,4.832,0,0,1-1.309-6.71l10.65-15.8-37.061,22.626a4.832,4.832,0,0,1-6.139-.919,4.817,4.817,0,0,1-.172-6.2l29.064-36.795-61.1,43.723a4.839,4.839,0,0,1-6.34-.621,4.84,4.84,0,0,1-.227-6.362l51.7-63.538-45.18,31.553a4.836,4.836,0,0,1-6.205-.563,4.839,4.839,0,0,1-.5-6.209l24.893-34.883-20.021,10.458a4.833,4.833,0,0,1-5.549-.76,4.835,4.835,0,0,1-1.107-5.489l8.227-18.509a4.83,4.83,0,0,1,6.383-2.453,4.836,4.836,0,0,1,2.459,6.381l-2.6,5.841,25.641-13.4a4.837,4.837,0,0,1,5.889,1.112,4.831,4.831,0,0,1,.291,5.982l-20.336,28.5,50.5-35.27a4.837,4.837,0,0,1,2.77-.871,4.825,4.825,0,0,1,3.541,1.543,4.828,4.828,0,0,1,.209,6.342l-50.754,62.374,59.582-42.638a4.836,4.836,0,0,1,6.313.6,4.835,4.835,0,0,1,.3,6.333l-33.506,42.406,32.9-20.088a4.836,4.836,0,0,1,6.014.785,4.839,4.839,0,0,1,.518,6.043l-23.021,34.171A4.85,4.85,0,0,1-23973.934-1416.9Z" transform="translate(24051.648 1516.898)"/>
</svg>
