<svg xmlns="http://www.w3.org/2000/svg" width="50" height="50" viewBox="0 0 50 50">
  <g id="Group_208" data-name="Group 208" transform="translate(-213 -441)">
    <circle id="Ellipse_10" data-name="Ellipse 10" cx="25" cy="25" r="25" transform="translate(213 441)"/>
    <path id="sun" d="M5.64,17l-.71.71a1,1,0,0,0,1.41,1.41l.71-.71A1,1,0,0,0,5.64,17ZM5,12a1,1,0,0,0-1-1H3a1,1,0,0,0,0,2H4A1,1,0,0,0,5,12Zm7-7a1,1,0,0,0,1-1V3a1,1,0,1,0-2,0V4A1,1,0,0,0,12,5ZM5.64,7.05A1,1,0,0,0,7.05,5.64l-.71-.71A1,1,0,0,0,4.93,6.34Zm12,.29a1,1,0,0,0,.7-.29l.71-.71a1,1,0,1,0-1.41-1.41L17,5.64a1,1,0,0,0,.66,1.7ZM21,11H20a1,1,0,0,0,0,2h1a1,1,0,0,0,0-2Zm-9,8a1,1,0,0,0-1,1v1a1,1,0,0,0,2,0V20A1,1,0,0,0,12,19Zm6.36-2A1,1,0,0,0,17,18.36l.71.71a1,1,0,0,0,1.41-1.41ZM12,6.5A5.5,5.5,0,1,0,17.5,12,5.5,5.5,0,0,0,12,6.5Zm0,9A3.5,3.5,0,1,1,15.5,12,3.5,3.5,0,0,1,12,15.5Z" transform="translate(226 454)" fill="#fff"/>
  </g>
</svg>
