<svg xmlns="http://www.w3.org/2000/svg" width="27" height="30" viewBox="0 0 27 30">
  <path id="notes" d="M22.5,20h-12a1.5,1.5,0,1,0,0,3h12a1.5,1.5,0,1,0,0-3Zm0-6h-9a1.5,1.5,0,0,0,0,3h9a1.5,1.5,0,1,0,0-3Zm6-9H24V3.5a1.5,1.5,0,1,0-3,0V5H18V3.5a1.5,1.5,0,1,0-3,0V5H12V3.5a1.5,1.5,0,0,0-3,0V5H4.5A1.5,1.5,0,0,0,3,6.5v21A4.5,4.5,0,0,0,7.5,32h18A4.5,4.5,0,0,0,30,27.5V6.5A1.5,1.5,0,0,0,28.5,5ZM27,27.5A1.5,1.5,0,0,1,25.5,29H7.5A1.5,1.5,0,0,1,6,27.5V8H9V9.5a1.5,1.5,0,0,0,3,0V8h3V9.5a1.5,1.5,0,1,0,3,0V8h3V9.5a1.5,1.5,0,0,0,3,0V8h3Z" transform="translate(-3 -2)" fill="#fff"/>
</svg>
